<svg id="Layer_1" data-name="Layer 1" xmlns="http://www.w3.org/2000/svg" viewBox="0 0 442.5542 16.8481">
    <title>1933-nursery-rnd-text</title>
    <path d="M15.36,8.3042A12.7929,12.7929,0,0,1,14.6758,12.9,6.1991,6.1991,0,0,1,13.08,15.4082a6.0477,6.0477,0,0,1-2.2681,1.0679,12.87,12.87,0,0,1-3.2764.372,11.3981,11.3981,0,0,1-3.5278-.4438A5.4376,5.4376,0,0,1,1.92,15.2158a5.124,5.124,0,0,1-.7319-.9477,6.3594,6.3594,0,0,1-.6123-1.38,11.5556,11.5556,0,0,1-.42-1.896A17.4573,17.4573,0,0,1,0,8.52,11.9917,11.9917,0,0,1,.6958,4.14a6.6432,6.6432,0,0,1,1.6563-2.604,6.7751,6.7751,0,0,1,2.16-1.08A10.9619,10.9619,0,0,1,7.896,0a11.4415,11.4415,0,0,1,3.4316.42,6.0881,6.0881,0,0,1,2.064,1.0684,5.6538,5.6538,0,0,1,1.3682,2.4A13.6833,13.6833,0,0,1,15.36,8.3042Zm-3.1919.0239a11.6756,11.6756,0,0,0-.336-3.0722,3.5642,3.5642,0,0,0-.8642-1.68,2.9231,2.9231,0,0,0-1.416-.66,8.9148,8.9148,0,0,0-1.7759-.18,6.0159,6.0159,0,0,0-2.0879.3,3.5786,3.5786,0,0,0-1.1524.6358A4.41,4.41,0,0,0,3.624,5.376a9.3822,9.3822,0,0,0-.4321,3.0478A11.74,11.74,0,0,0,3.5278,11.46,3.6246,3.6246,0,0,0,4.416,13.2a2.8825,2.8825,0,0,0,1.2837.708,6.632,6.632,0,0,0,1.812.228A7.9249,7.9249,0,0,0,9.6,13.9082a3.3583,3.3583,0,0,0,1.2241-.564,3.6521,3.6521,0,0,0,.9361-1.6923A11.0763,11.0763,0,0,0,12.168,8.3281Z" style="fill:#fff"/>
    <path d="M32.7593,10.1279q0,1.08-.0718,1.8843a7.5862,7.5862,0,0,1-.24,1.3921,4.3493,4.3493,0,0,1-.4317,1.0317,3.6886,3.6886,0,0,1-.6479.8042,5.0988,5.0988,0,0,1-2.0044,1.08,11.8754,11.8754,0,0,1-3.6358.4561,11.8149,11.8149,0,0,1-3.6718-.48,4.7335,4.7335,0,0,1-2.1123-1.248,3.1616,3.1616,0,0,1-.5162-.7437,4.4853,4.4853,0,0,1-.3359-.96,7.68,7.68,0,0,1-.18-1.26q-.0483-.7076-.0483-1.668V.6963a.3233.3233,0,0,1,.1084-.2881A.4006.4006,0,0,1,19.2.3359h1.32a5.3355,5.3355,0,0,1,.792.0484.8607.8607,0,0,1,.4917.2275.9579.9579,0,0,1,.24.5283,5.9213,5.9213,0,0,1,.06.9478v8.04a9.5016,9.5016,0,0,0,.1441,1.92,2.4982,2.4982,0,0,0,.5039,1.08,2.2789,2.2789,0,0,0,1.0561.5762,6.5251,6.5251,0,0,0,1.92.24,7.7234,7.7234,0,0,0,1.9561-.2036,2.8792,2.8792,0,0,0,1.1641-.5639,2.1625,2.1625,0,0,0,.5517-.9961,7.8589,7.8589,0,0,0,.1919-2.0283V2.064a4.6847,4.6847,0,0,1,.0723-.9361,1.0106,1.0106,0,0,1,.2519-.5161.84.84,0,0,1,.4678-.2275,4.656,4.656,0,0,1,.7441-.0484h1.272a.3183.3183,0,0,1,.36.36Z" style="fill:#fff"/>
    <path d="M36.9834.72q0-.3837.3359-.3359.6-.0241,1.2964-.06t1.416-.0483Q40.7517.2642,41.46.252T42.7915.24q1.2957,0,2.22.0479t1.56.1318a4.9582,4.9582,0,0,1,1.0561.24,3.92,3.92,0,0,1,.7559.372,2.8109,2.8109,0,0,1,1.0083,1.26,5.7459,5.7459,0,0,1,.36,2.2441,7.579,7.579,0,0,1-.3238,2.4121,6.2011,6.2011,0,0,1-.852,1.668,4.5225,4.5225,0,0,0-.3721.5278.9145.9145,0,0,0-.1079.4561,2.8179,2.8179,0,0,0,.0957.6719,10.4415,10.4415,0,0,0,.36,1.08l1.7041,4.68a.469.469,0,0,1-.0479.36.311.311,0,0,1-.2881.168H48.9116a4.494,4.494,0,0,1-.8642-.0718,1.5894,1.5894,0,0,1-.648-.2881,2.0349,2.0349,0,0,1-.5161-.6,5.814,5.814,0,0,1-.4438-.9839l-.9839-2.76a2.1819,2.1819,0,0,0-.6719-1.104,2.21,2.21,0,0,0-1.2241-.2637H40.6553a.6981.6981,0,0,0-.4556.1079.6872.6872,0,0,0-.12.4917v4.8a.7934.7934,0,0,1-.1323.5278.6161.6161,0,0,1-.4678.1441h-2.16q-.3362,0-.3359-.3838Zm9.624,4.416a3.7939,3.7939,0,0,0-.1557-1.2124,1.4418,1.4418,0,0,0-.4683-.6836,1.7808,1.7808,0,0,0-.8877-.3481,12.7486,12.7486,0,0,0-1.9683-.1079h-.72q-.3844,0-.7563.0117t-.6958.0239q-.3239.0125-.54.0122-.36.0242-.36.48V7.32a.8036.8036,0,0,0,.1079.5044.6442.6442,0,0,0,.4677.12h3.4561a7.5909,7.5909,0,0,0,.876-.0356A3.2792,3.2792,0,0,0,45.48,7.8a.9644.9644,0,0,0,.3481-.2642A2.2394,2.2394,0,0,0,46.2,6.9722a4.448,4.448,0,0,0,.2876-.816A4.0941,4.0941,0,0,0,46.6074,5.1362Z" style="fill:#fff"/>
    <path d="M73.0547,8.3042A12.7907,12.7907,0,0,1,72.3706,12.9a6.198,6.198,0,0,1-1.5957,2.5083,6.0469,6.0469,0,0,1-2.2681,1.0679,12.87,12.87,0,0,1-3.2763.372,11.3984,11.3984,0,0,1-3.5279-.4438,5.4391,5.4391,0,0,1-2.0879-1.1885,5.1283,5.1283,0,0,1-.7319-.9477,6.3594,6.3594,0,0,1-.6123-1.38,11.5556,11.5556,0,0,1-.42-1.896A17.4573,17.4573,0,0,1,57.6948,8.52a11.9938,11.9938,0,0,1,.6958-4.38,6.6432,6.6432,0,0,1,1.6563-2.604,6.7751,6.7751,0,0,1,2.16-1.08A10.9619,10.9619,0,0,1,65.5908,0a11.4427,11.4427,0,0,1,3.4317.42,6.0885,6.0885,0,0,1,2.0639,1.0684,5.6538,5.6538,0,0,1,1.3682,2.4A13.6833,13.6833,0,0,1,73.0547,8.3042Zm-3.1919.0239a11.68,11.68,0,0,0-.3359-3.0722,3.5651,3.5651,0,0,0-.8643-1.68,2.9231,2.9231,0,0,0-1.416-.66,8.9148,8.9148,0,0,0-1.7759-.18,6.0159,6.0159,0,0,0-2.0879.3,3.5769,3.5769,0,0,0-1.1523.6358,4.4087,4.4087,0,0,0-.9117,1.7041,9.3849,9.3849,0,0,0-.4321,3.0478,11.735,11.735,0,0,0,.336,3.0362,3.6238,3.6238,0,0,0,.8881,1.74,2.8831,2.8831,0,0,0,1.2837.708,6.633,6.633,0,0,0,1.812.228,7.9249,7.9249,0,0,0,2.0879-.228,3.36,3.36,0,0,0,1.2242-.564,3.653,3.653,0,0,0,.936-1.6923A11.0731,11.0731,0,0,0,69.8628,8.3281Z" style="fill:#fff"/>
    <path d="M76.7744.3359a4.2993,4.2993,0,0,1,.84.0723,1.4677,1.4677,0,0,1,.6123.2637,1.3793,1.3793,0,0,1,.4077.5283,3.09,3.09,0,0,1,.228.8877l1.6563,10.9683a1.3648,1.3648,0,0,0,.312.7558,1.0359,1.0359,0,0,0,.6479.1563,1.0465,1.0465,0,0,0,.648-.168,1.2349,1.2349,0,0,0,.312-.7681l1.4638-8.5683a8.249,8.249,0,0,1,.4444-1.5957,2.2762,2.2762,0,0,1,.6118-.9483A2.7041,2.7041,0,0,1,85.99,1.44a6.8985,6.8985,0,0,1,1.68-.1679,8.2741,8.2741,0,0,1,1.728.1562,2.1057,2.1057,0,0,1,1.0562.4917,2.36,2.36,0,0,1,.5278.8882,7.6724,7.6724,0,0,1,.3838,1.6079l1.2725,8.64a1.2519,1.2519,0,0,0,.2876.768,1.0063,1.0063,0,0,0,.6.1441,1.1458,1.1458,0,0,0,.684-.1563,1.1859,1.1859,0,0,0,.3-.7319l1.8-11.0879A2.065,2.065,0,0,1,96.9224.6841a2.1354,2.1354,0,0,1,1.332-.3482h.9121A.4734.4734,0,0,1,99.55.48a.4806.4806,0,0,1,.0723.4082L97.3184,13.6318a4.5746,4.5746,0,0,1-.5162,1.6324,3.6053,3.6053,0,0,1-.66.792,3.392,3.392,0,0,1-.9483.5039,5.4258,5.4258,0,0,1-1.7636.2158,7.9272,7.9272,0,0,1-1.7041-.1558,1.9159,1.9159,0,0,1-1.0083-.4922,2.2794,2.2794,0,0,1-.3238-.3476,3.0494,3.0494,0,0,1-.3-.4922,3.6968,3.6968,0,0,1-.2519-.6958,7.5236,7.5236,0,0,1-.18-1.0083L88.4863,4.896a1.399,1.399,0,0,0-.24-.7319.8832.8832,0,0,0-.648-.18.7611.7611,0,0,0-.624.1924,1.8846,1.8846,0,0,0-.24.7436l-1.4639,8.688a5.6447,5.6447,0,0,1-.4922,1.6563,2.9581,2.9581,0,0,1-.6357.84,2.1965,2.1965,0,0,1-1.08.5039,8.0473,8.0473,0,0,1-1.752.168,7.1762,7.1762,0,0,1-1.8-.168,2.1785,2.1785,0,0,1-.8877-.4316,3.0815,3.0815,0,0,1-.3243-.3242,2.08,2.08,0,0,1-.3-.4922,4.4762,4.4762,0,0,1-.2641-.8037q-.12-.4916-.24-1.2364L75.4307.8159a.3674.3674,0,0,1,.0717-.3476.3765.3765,0,0,1,.2881-.1324Z" style="fill:#fff"/>
    <path d="M118.0542,13.6562a5.3862,5.3862,0,0,1-.18,1.5718,2.5569,2.5569,0,0,1-.4438.876,1.9641,1.9641,0,0,1-.9121.4922,7.3953,7.3953,0,0,1-1.896.18,6.9537,6.9537,0,0,1-1.7164-.1558,2.5432,2.5432,0,0,1-.9-.42,3.6365,3.6365,0,0,1-.6718-.8159,7.3042,7.3042,0,0,1-.648-1.3682L106.9424,3.72a1.7172,1.7172,0,0,0-.42-.6963.9606.9606,0,0,0-.6363-.1919q-.4078,0-.5156.168a.9987.9987,0,0,0-.1084.5278V15.144q0,.9126-.4438,1.1641a2.8992,2.8992,0,0,1-1.38.252h-.6719q-.36,0-.36-.4322V3.5039a6.8081,6.8081,0,0,1,.18-1.8359,2.0565,2.0565,0,0,1,.54-.9239,2.2006,2.2006,0,0,1,.9-.4321,6.9429,6.9429,0,0,1,1.74-.168,7.4922,7.4922,0,0,1,1.7158.1441,2.4091,2.4091,0,0,1,.9.4082,2.7082,2.7082,0,0,1,.648.8276,12.85,12.85,0,0,1,.6963,1.5723l3.768,10.2a1.109,1.109,0,0,0,1.0318.84q.4078,0,.5161-.2641A1.7931,1.7931,0,0,0,115.15,13.2V1.7041A1.5055,1.5055,0,0,1,115.45.66a1.8885,1.8885,0,0,1,1.332-.3243h.9121q.36,0,.36.4082Z" style="fill:#fff"/>
    <path d="M141.2617,14.9043a1.2489,1.2489,0,0,1-.2041.7559,1.3093,1.3093,0,0,1-.7319.42q-.9126.216-2.3042.42a21.3139,21.3139,0,0,1-3.0718.2041,19.6848,19.6848,0,0,1-2.1958-.1079,12.1444,12.1444,0,0,1-1.644-.2881,5.6149,5.6149,0,0,1-1.2-.4438,5.3862,5.3862,0,0,1-.8638-.5523,4.2656,4.2656,0,0,1-.7563-.8281,5.3717,5.3717,0,0,1-.66-1.3076,9.9659,9.9659,0,0,1-.4561-1.896,17.4216,17.4216,0,0,1-.1679-2.5923,15.0919,15.0919,0,0,1,.2158-2.7241,10.3251,10.3251,0,0,1,.5522-1.9917,6.3016,6.3016,0,0,1,.7437-1.38,5.6119,5.6119,0,0,1,.792-.8882,5.6,5.6,0,0,1,2.2563-1.14A14.12,14.12,0,0,1,135.4536.12a28.7717,28.7717,0,0,1,2.9282.12,4.4226,4.4226,0,0,1,1.6319.4077,1.5,1.5,0,0,1,.456.3721,2.647,2.647,0,0,1,.3721.5762,5.1305,5.1305,0,0,1,.2637.66,1.988,1.988,0,0,1,.1084.6.3329.3329,0,0,1-.1324.288.2894.2894,0,0,1-.2758.0479q-.7683-.0952-2.04-.2158t-2.688-.12a13.0946,13.0946,0,0,0-2.916.2641,3.5169,3.5169,0,0,0-1.62.7442,4.7864,4.7864,0,0,0-.9238,1.644,8.404,8.404,0,0,0-.4439,2.9639,11.2842,11.2842,0,0,0,.3721,3.3359,2.9909,2.9909,0,0,0,.9,1.5117,3.23,3.23,0,0,0,1.2358.5283,8.1818,8.1818,0,0,0,1.8843.1919q1.0554,0,1.8237-.0717t1.2242-.1441a.6655.6655,0,0,0,.5278-.7441V10.3682q0-.5282-.6-.5284H134.95q-.312,0-.312-.36a1.899,1.899,0,0,1,.084-.4917,3.6255,3.6255,0,0,1,.228-.6,4.8467,4.8467,0,0,1,.3-.54,1.161,1.161,0,0,1,.3-.3359.9658.9658,0,0,1,.4917-.1924,6.1067,6.1067,0,0,1,.8521-.0478h3.4321a1.2331,1.2331,0,0,1,.6719.1679q.2636.1685.2641.816Z" style="fill:#fff"/>
    <path d="M144.9814.72q0-.3837.336-.3359.6-.0241,1.2964-.06T148.03.2759q.72-.0117,1.4277-.0239T150.79.24q1.2955,0,2.22.0479T154.5693.42a4.9593,4.9593,0,0,1,1.0562.24,3.9188,3.9188,0,0,1,.7558.372,2.81,2.81,0,0,1,1.0083,1.26,5.744,5.744,0,0,1,.36,2.2441,7.5821,7.5821,0,0,1-.3237,2.4121,6.1984,6.1984,0,0,1-.8521,1.668,4.519,4.519,0,0,0-.372.5278.9145.9145,0,0,0-.1079.4561,2.8179,2.8179,0,0,0,.0957.6719,10.4115,10.4115,0,0,0,.36,1.08l1.7041,4.68a.4694.4694,0,0,1-.0478.36.3112.3112,0,0,1-.2881.168H156.91a4.4944,4.4944,0,0,1-.8643-.0718,1.59,1.59,0,0,1-.6479-.2881,2.0352,2.0352,0,0,1-.5162-.6,5.8219,5.8219,0,0,1-.4438-.9839l-.9839-2.76a2.1819,2.1819,0,0,0-.6719-1.104,2.21,2.21,0,0,0-1.2241-.2637h-2.9043a.6976.6976,0,0,0-.4555.1079.6871.6871,0,0,0-.12.4917v4.8a.7934.7934,0,0,1-.1323.5278.616.616,0,0,1-.4678.1441h-2.16q-.3362,0-.336-.3838Zm9.6241,4.416a3.7935,3.7935,0,0,0-.1558-1.2124,1.4411,1.4411,0,0,0-.4683-.6836,1.78,1.78,0,0,0-.8876-.3481,12.75,12.75,0,0,0-1.9683-.1079h-.72q-.3846,0-.7564.0117t-.6958.0239q-.3237.0125-.54.0122-.36.0242-.36.48V7.32a.8043.8043,0,0,0,.1079.5044.6443.6443,0,0,0,.4678.12h3.456a7.59,7.59,0,0,0,.876-.0356,3.2768,3.2768,0,0,0,.5161-.1079.9646.9646,0,0,0,.3482-.2642,2.2448,2.2448,0,0,0,.3721-.5639,4.448,4.448,0,0,0,.2876-.816A4.0988,4.0988,0,0,0,154.6055,5.1362Z" style="fill:#fff"/>
    <path d="M167.4458,2.9282q-.9126,0-1.5361.0239T164.7334,3a.7471.7471,0,0,0-.5156.1562.8071.8071,0,0,0-.1084.4917V6.5522q0,.408.5522.4078h7.1519q.4321,0,.4321.4082a1.622,1.622,0,0,1-.084.4438,5.3315,5.3315,0,0,1-.2158.5762,3.5424,3.5424,0,0,1-.312.5639,2.07,2.07,0,0,1-.3482.4078,1.0962,1.0962,0,0,1-.5039.144q-.3127.0242-.792.0239h-5.3042a.5765.5765,0,0,0-.456.1441.6628.6628,0,0,0-.12.4321V13.2a.7426.7426,0,0,0,.1562.5518.8377.8377,0,0,0,.564.144q.408,0,.9482.0122t1.5718.0117q1.752,0,3.06-.0478t2.3877-.12q.4078,0,.4082.3842a1.7717,1.7717,0,0,1-.1319.6118,3.7982,3.7982,0,0,1-.3359.6719,4.9045,4.9045,0,0,1-.4321.5884,1.4682,1.4682,0,0,1-.42.36,2.1382,2.1382,0,0,1-.5044.12q-.3362.0483-.9116.0718t-1.44.0361q-.8643.0117-2.04.0117-1.8486,0-3.1084-.0117t-2.34-.06a.8564.8564,0,0,1-.3721-.12q-.2277-.1194-.228-.5278v-15A.4038.4038,0,0,1,161.1455.48.8294.8294,0,0,1,161.47.3843q.6234-.0241,1.2359-.0362t1.26-.0239q.6476-.0117,1.38-.0239t1.5957-.0122h1.6924q.8275,0,1.5.0239t1.1518.06a2.7474,2.7474,0,0,1,.6719.1079.9157.9157,0,0,1,.3482.3242,3.9438,3.9438,0,0,1,.3359.5757,4.9464,4.9464,0,0,1,.2642.6723,2.1122,2.1122,0,0,1,.1079.6119q0,.4086-.4561.4082-.4563-.0241-1.0561-.0484t-1.26-.0478q-.6606-.0236-1.38-.0362T167.4458,2.9282Z" style="fill:#fff"/>
    <path d="M178.7969,15.144a2.0332,2.0332,0,0,1-.624,1.0562,2.17,2.17,0,0,1-1.3921.36h-1.1519a.2732.2732,0,0,1-.228-.108.3648.3648,0,0,1-.084-.228,1.3383,1.3383,0,0,1,.0478-.312q.0477-.1919.12-.4321l3.2636-10.9678q.24-.8643.4683-1.4761a8.7015,8.7015,0,0,1,.4438-1.02,4.8156,4.8156,0,0,1,.4082-.66,2.2912,2.2912,0,0,1,.4078-.42,3.1175,3.1175,0,0,1,1.2-.5879A7.7823,7.7823,0,0,1,183.7646.12a8.0694,8.0694,0,0,1,2.004.1919,2.79,2.79,0,0,1,1.14.5762,1.8219,1.8219,0,0,1,.3359.4077,5.1833,5.1833,0,0,1,.3482.6724q.18.4079.3838,1.02t.4443,1.4516l3.1919,11.3521c.0478.16.0762.26.084.3a1.2126,1.2126,0,0,1,.0117.2036c0,.1763-.1113.2642-.3359.2642h-1.272a2.16,2.16,0,0,1-1.4038-.36,2.2426,2.2426,0,0,1-.6363-1.1279l-.9838-3.4082a.82.82,0,0,0-.3477-.5279,2.0515,2.0515,0,0,0-.852-.12h-4.9205a1.8248,1.8248,0,0,0-.8159.1318,1.1367,1.1367,0,0,0-.4077.6841ZM186.1406,7.92a2.0245,2.0245,0,0,0-.0718-.3838c-.0478-.1919-.1123-.44-.1918-.7441l-.48-1.752q-.1443-.5038-.2525-.8281a4.1044,4.1044,0,0,0-.2036-.5156,2.6221,2.6221,0,0,0-.18-.312,1.4969,1.4969,0,0,0-.1557-.1924,1.7008,1.7008,0,0,0-.396-.2036,1.8151,1.8151,0,0,0-.6123-.084,2.2287,2.2287,0,0,0-.6841.084,2.0906,2.0906,0,0,0-.4438.2036,1.99,1.99,0,0,0-.4561.6,7.49,7.49,0,0,0-.5278,1.416l-.5039,1.68c-.0645.24-.12.4521-.168.6357a1.7977,1.7977,0,0,0-.0723.396.438.438,0,0,0,.1919.42,1.6284,1.6284,0,0,0,.72.1084h3.6958a1.045,1.045,0,0,0,.648-.1323A.509.509,0,0,0,186.1406,7.92Z" style="fill:#fff"/>
    <path d="M199.8687,16.0562q0,.5038-.4561.5039H197.061c-.2246,0-.3359-.128-.3359-.3838V4.5361a6.2823,6.2823,0,0,0-.0488-.8642.8272.8272,0,0,0-.2276-.5039.9872.9872,0,0,0-.5039-.2281,5.2752,5.2752,0,0,0-.9-.06h-3.8637c-.208,0-.312-.0874-.312-.2637a4.1589,4.1589,0,0,1,.0478-.6123,4.5223,4.5223,0,0,1,.1323-.6118,3.4523,3.4523,0,0,1,.1919-.5161.9012.9012,0,0,1,.2281-.3238,1.2719,1.2719,0,0,1,.5883-.18q.3707-.036.9951-.0362H205.437q.3838,0,.3838.336a4.2865,4.2865,0,0,1-.0479.6123q-.0483.3237-.12.6118a2.4417,2.4417,0,0,1-.1806.5039.91.91,0,0,1-.2276.312.7215.7215,0,0,1-.4082.1441q-.2637.0242-.72.0239h-2.76a3.9653,3.9653,0,0,0-.7685.06.7741.7741,0,0,0-.4434.24,1.0715,1.0715,0,0,0-.2168.5278,5.6755,5.6755,0,0,0-.06.9238Z" style="fill:#fff"/>
    <path d="M227.8755.6719a.6986.6986,0,0,1-.0479.2641,2.2961,2.2961,0,0,0-.0957.336l-2.664,10.56q-.24.96-.4561,1.62a8.1675,8.1675,0,0,1-.4443,1.1158,4.897,4.897,0,0,1-.4434.7441,3.5883,3.5883,0,0,1-.456.5039,3.2719,3.2719,0,0,1-1.3438.708,8.4143,8.4143,0,0,1-2.1846.2281,7.47,7.47,0,0,1-2.1962-.252,3.3721,3.3721,0,0,1-1.7637-1.2358,3.905,3.905,0,0,1-.4317-.792,11.8525,11.8525,0,0,1-.4443-1.272q-.2285-.7683-.4922-1.9443l-2.3281-9.9117c-.0322-.1762-.0557-.3081-.0713-.396a1.3549,1.3549,0,0,1-.0244-.2519.3459.3459,0,0,1,.1084-.2525.4389.4389,0,0,1,.3232-.1079h1.0567A2.145,2.145,0,0,1,214.8442.72a2.7765,2.7765,0,0,1,.7442,1.56l1.9678,8.64a11.8193,11.8193,0,0,0,.5156,1.836,2.062,2.062,0,0,0,.42.708,1.7522,1.7522,0,0,0,1.2959.456,2.3926,2.3926,0,0,0,.8281-.1079,1.9719,1.9719,0,0,0,.4678-.2519,1.8765,1.8765,0,0,0,.5166-.7559,9.8782,9.8782,0,0,0,.5156-1.74l2.16-8.88a4.5989,4.5989,0,0,1,.24-.78,1.8875,1.8875,0,0,1,.3721-.5884,1.4109,1.4109,0,0,1,.5762-.36,2.8031,2.8031,0,0,1,.8994-.12h1.1045Q227.8754.3359,227.8755.6719Z" style="fill:#fff"/>
    <path d="M232.1479,15.144a2.0293,2.0293,0,0,1-.624,1.0562,2.168,2.168,0,0,1-1.3916.36H228.98a.2761.2761,0,0,1-.2285-.108.3677.3677,0,0,1-.084-.228,1.2962,1.2962,0,0,1,.0488-.312q.047-.1919.1191-.4321L232.1,4.5122q.2388-.8643.4678-1.4761a8.5136,8.5136,0,0,1,.4443-1.02,4.8213,4.8213,0,0,1,.4072-.66,2.296,2.296,0,0,1,.4082-.42,3.119,3.119,0,0,1,1.2-.5879A7.7836,7.7836,0,0,1,237.1157.12,8.0685,8.0685,0,0,1,239.12.312,2.7956,2.7956,0,0,1,240.26.8882a1.8493,1.8493,0,0,1,.3359.4077,5.2517,5.2517,0,0,1,.3476.6724q.18.4079.3838,1.02T241.772,4.44l3.1914,11.3521c.0488.16.0762.26.084.3a1.0884,1.0884,0,0,1,.0127.2036q0,.2645-.336.2642h-1.2724a2.1623,2.1623,0,0,1-1.4043-.36,2.2533,2.2533,0,0,1-.6358-1.1279l-.9834-3.4082a.823.823,0,0,0-.3486-.5279,2.048,2.048,0,0,0-.8516-.12h-4.92a1.8285,1.8285,0,0,0-.8164.1318,1.1387,1.1387,0,0,0-.4082.6841ZM239.4917,7.92a1.9576,1.9576,0,0,0-.0723-.3838q-.0717-.2879-.1914-.7441l-.48-1.752q-.1435-.5038-.252-.8281a3.8917,3.8917,0,0,0-.2041-.5156,2.5081,2.5081,0,0,0-.18-.312,1.5391,1.5391,0,0,0-.1562-.1924,1.7069,1.7069,0,0,0-.3955-.2036,1.8151,1.8151,0,0,0-.6123-.084,2.2247,2.2247,0,0,0-.6836.084,2.0983,2.0983,0,0,0-.4444.2036,2.0058,2.0058,0,0,0-.456.6,7.5176,7.5176,0,0,0-.5284,1.416l-.5039,1.68c-.0634.24-.12.4521-.1679.6357a1.81,1.81,0,0,0-.0713.396.4378.4378,0,0,0,.1914.42,1.6273,1.6273,0,0,0,.72.1084H238.7a1.0485,1.0485,0,0,0,.6484-.1323A.5106.5106,0,0,0,239.4917,7.92Z" style="fill:#fff"/>
    <path d="M247.5562.6719a.4081.4081,0,0,1,.0722-.2281.2675.2675,0,0,1,.24-.1079h1.92A.9776.9776,0,0,1,250.521.54a1.4976,1.4976,0,0,1,.18.9V13.2241a.84.84,0,0,0,.1318.5518.6957.6957,0,0,0,.5156.144q.4087,0,1.2608.0122t1.8115.0117q1.44,0,2.8926-.0595t2.4355-.1323q.4322-.0477.4082.3842a1.706,1.706,0,0,1-.12.5879q-.12.3237-.2763.648a3.2879,3.2879,0,0,1-.3594.5879,1.61,1.61,0,0,1-.3965.3842,3.2966,3.2966,0,0,1-.4795.1319,6.4258,6.4258,0,0,1-.8047.0962q-.5155.0359-1.2959.0478t-1.956.0117q-1.92,0-3.5879-.0117t-2.7481-.06a.7782.7782,0,0,1-.3594-.12.5241.5241,0,0,1-.2167-.5039Z" style="fill:#fff"/>
    <path d="M275.4438,10.1279q0,1.08-.0722,1.8843a7.6258,7.6258,0,0,1-.2393,1.3921A4.3665,4.3665,0,0,1,274.7,14.436a3.6576,3.6576,0,0,1-.6475.8042,5.0918,5.0918,0,0,1-2.0039,1.08,11.8862,11.8862,0,0,1-3.6367.4561,11.82,11.82,0,0,1-3.6719-.48,4.7277,4.7277,0,0,1-2.1113-1.248,3.1339,3.1339,0,0,1-.5166-.7437,4.4853,4.4853,0,0,1-.3359-.96,7.6154,7.6154,0,0,1-.18-1.26q-.0483-.7076-.0479-1.668V.6963a.3257.3257,0,0,1,.1075-.2881.4042.4042,0,0,1,.2285-.0723h1.3193a5.3318,5.3318,0,0,1,.792.0484.8623.8623,0,0,1,.4922.2275.9572.9572,0,0,1,.24.5283,5.8592,5.8592,0,0,1,.06.9478v8.04a9.5328,9.5328,0,0,0,.1445,1.92,2.4994,2.4994,0,0,0,.5039,1.08,2.2825,2.2825,0,0,0,1.0557.5762,6.5316,6.5316,0,0,0,1.92.24,7.7234,7.7234,0,0,0,1.9561-.2036,2.8716,2.8716,0,0,0,1.164-.5639,2.1625,2.1625,0,0,0,.5528-.9961,7.9089,7.9089,0,0,0,.1914-2.0283V2.064a4.7316,4.7316,0,0,1,.0722-.9361A1.0115,1.0115,0,0,1,272.6.6118a.8411.8411,0,0,1,.4678-.2275,4.66,4.66,0,0,1,.7441-.0484h1.2725a.3182.3182,0,0,1,.3593.36Z" style="fill:#fff"/>
    <path d="M286.1968,2.9282q-.9126,0-1.5362.0239T283.4849,3a.75.75,0,0,0-.5166.1562.8154.8154,0,0,0-.1075.4917V6.5522q0,.408.5518.4078h7.1523q.4321,0,.4317.4082a1.622,1.622,0,0,1-.084.4438,5.3315,5.3315,0,0,1-.2158.5762,3.4676,3.4676,0,0,1-.3125.5639,2.09,2.09,0,0,1-.3477.4078,1.0928,1.0928,0,0,1-.5039.144c-.208.0161-.4726.0239-.792.0239H283.437a.5743.5743,0,0,0-.456.1441.6571.6571,0,0,0-.12.4321V13.2a.7473.7473,0,0,0,.1553.5518.84.84,0,0,0,.5645.144q.4072,0,.9482.0122.5391.0124,1.5713.0117,1.752,0,3.06-.0478t2.3877-.12q.4088,0,.4082.3842a1.76,1.76,0,0,1-.1318.6118,3.7711,3.7711,0,0,1-.3359.6719,4.9068,4.9068,0,0,1-.4326.5884,1.4551,1.4551,0,0,1-.42.36,2.1265,2.1265,0,0,1-.5039.12q-.3354.0483-.9121.0718t-1.4394.0361q-.8643.0117-2.04.0117-1.8486,0-3.1084-.0117t-2.34-.06a.8584.8584,0,0,1-.3721-.12c-.1523-.08-.2275-.2558-.2275-.5278v-15A.403.403,0,0,1,279.897.48.8274.8274,0,0,1,280.22.3843q.624-.0241,1.2363-.0362t1.26-.0239c.4326-.0078.8916-.0161,1.38-.0239s1.02-.0122,1.5967-.0122h1.6914c.5527,0,1.0517.0083,1.5.0239s.832.0361,1.1523.06a2.7474,2.7474,0,0,1,.6719.1079.9045.9045,0,0,1,.3477.3242,3.8556,3.8556,0,0,1,.3359.5757,4.8712,4.8712,0,0,1,.2646.6723,2.09,2.09,0,0,1,.1075.6119c0,.2724-.1514.4082-.4561.4082q-.4556-.0241-1.0557-.0484t-1.26-.0478q-.6608-.0236-1.38-.0362Q286.8921,2.9282,286.1968,2.9282Z" style="fill:#fff"/>
    <path d="M300.4272.72q0-.3837.336-.3359.6006-.0241,1.2959-.06t1.416-.0483q.7208-.0117,1.4287-.0239T306.2358.24q1.295,0,2.22.0479.9228.0483,1.56.1318a4.9646,4.9646,0,0,1,1.0567.24,3.9476,3.9476,0,0,1,.7558.372,2.8126,2.8126,0,0,1,1.0078,1.26,5.7338,5.7338,0,0,1,.36,2.2441,7.5807,7.5807,0,0,1-.3242,2.4121,6.1566,6.1566,0,0,1-.8526,1.668,4.6463,4.6463,0,0,0-.372.5278A.9251.9251,0,0,0,311.54,9.6a2.7926,2.7926,0,0,0,.0957.6719,10.0842,10.0842,0,0,0,.36,1.08l1.7041,4.68a.4714.4714,0,0,1-.0488.36.3092.3092,0,0,1-.2871.168H312.355a4.4768,4.4768,0,0,1-.8633-.0718,1.591,1.591,0,0,1-.6484-.2881,2.02,2.02,0,0,1-.5157-.6,5.82,5.82,0,0,1-.4443-.9839l-.9844-2.76a2.1758,2.1758,0,0,0-.6718-1.104,2.2075,2.2075,0,0,0-1.2237-.2637h-2.9043a.7011.7011,0,0,0-.456.1079.69.69,0,0,0-.12.4917v4.8a.7937.7937,0,0,1-.1318.5278.6167.6167,0,0,1-.4678.1441h-2.16c-.2236,0-.336-.128-.336-.3838Zm9.6241,4.416a3.7634,3.7634,0,0,0-.1563-1.2124,1.4334,1.4334,0,0,0-.4678-.6836,1.7759,1.7759,0,0,0-.8876-.3481,12.742,12.742,0,0,0-1.9678-.1079h-.7207q-.3838,0-.7559.0117c-.248.0083-.4795.0161-.6963.0239s-.3955.0122-.54.0122q-.3589.0242-.3594.48V7.32a.8112.8112,0,0,0,.1074.5044.6473.6473,0,0,0,.4688.12h3.456a7.6016,7.6016,0,0,0,.876-.0356,3.2823,3.2823,0,0,0,.5156-.1079.9637.9637,0,0,0,.3477-.2642,2.2421,2.2421,0,0,0,.3721-.5639,4.3739,4.3739,0,0,0,.2881-.816A4.0988,4.0988,0,0,0,310.0513,5.1362Z" style="fill:#fff"/>
    <path d="M332.0347,13.6562a5.3862,5.3862,0,0,1-.18,1.5718,2.5552,2.5552,0,0,1-.4444.876,1.9559,1.9559,0,0,1-.9121.4922,7.3877,7.3877,0,0,1-1.8955.18,6.94,6.94,0,0,1-1.7158-.1558,2.54,2.54,0,0,1-.9-.42,3.6259,3.6259,0,0,1-.6719-.8159,7.3029,7.3029,0,0,1-.6484-1.3682L320.9233,3.72a1.7161,1.7161,0,0,0-.4209-.6963.9559.9559,0,0,0-.6357-.1919c-.2725,0-.4434.0562-.5156.168a.9987.9987,0,0,0-.1084.5278V15.144q0,.9126-.4434,1.1641a2.9046,2.9046,0,0,1-1.3808.252h-.6719q-.3589,0-.3594-.4322V3.5039a6.8124,6.8124,0,0,1,.18-1.8359,2.0573,2.0573,0,0,1,.54-.9239,2.2031,2.2031,0,0,1,.9-.4321,6.9321,6.9321,0,0,1,1.7393-.168,7.5057,7.5057,0,0,1,1.7168.1441,2.4177,2.4177,0,0,1,.8994.4082,2.7162,2.7162,0,0,1,.6484.8276,12.9167,12.9167,0,0,1,.6953,1.5723l3.7686,10.2a1.109,1.109,0,0,0,1.0322.84q.4072,0,.5156-.2641a1.7823,1.7823,0,0,0,.1084-.6719V1.7041a1.5055,1.5055,0,0,1,.3-1.0439,1.886,1.886,0,0,1,1.332-.3243h.9121q.359,0,.3594.4082Z" style="fill:#fff"/>
    <path d="M351.0435,8.1841a12.8887,12.8887,0,0,1-.72,4.62,5.9565,5.9565,0,0,1-1.6806,2.604,5.9655,5.9655,0,0,1-2.3272.96,20.1129,20.1129,0,0,1-4.1523.3359q-1.3917,0-2.82-.0479t-2.58-.0961a1.1317,1.1317,0,0,1-.3233-.1441c-.1367-.08-.2041-.2558-.2041-.5278v-15a.42.42,0,0,1,.18-.4082.68.68,0,0,1,.3-.0957q.5274-.0241,1.2-.0484t1.416-.0478q.7441-.0234,1.5362-.0361T342.4038.24q1.3915,0,2.46.084a15.0878,15.0878,0,0,1,1.872.252,7.0747,7.0747,0,0,1,1.38.42,4.1933,4.1933,0,0,1,1.0078.6118,4.1553,4.1553,0,0,1,.7325.876,5.9436,5.9436,0,0,1,.6113,1.332,10.8657,10.8657,0,0,1,.42,1.8843A17.6336,17.6336,0,0,1,351.0435,8.1841Zm-3.2881.12A14.3085,14.3085,0,0,0,347.66,6.54a6.6466,6.6466,0,0,0-.2764-1.2841,3.9085,3.9085,0,0,0-.4082-.876,2.8609,2.8609,0,0,0-.4678-.564,2.9882,2.9882,0,0,0-1.5722-.624,16.7358,16.7358,0,0,0-2.3155-.144h-.7441q-.3838,0-.7676.0122c-.2568.0083-.4883.0161-.6963.0239s-.3838.02-.5283.0361c-.2236.0161-.3594.0684-.4082.1558a.9976.9976,0,0,0-.0713.4443V13.2c0,.24.0391.3921.12.456a.8127.8127,0,0,0,.4317.12q.4072.0483,1.164.0722t1.62.024a11.44,11.44,0,0,0,2.34-.18,3.348,3.348,0,0,0,1.26-.5156,3.9013,3.9013,0,0,0,.96-1.68A9.5713,9.5713,0,0,0,347.7554,8.3042Z" style="fill:#fff"/>
    <path d="M359.9224.72q0-.3837.3359-.3359.6006-.0241,1.2959-.06T362.97.2759q.7208-.0117,1.4287-.0239T365.731.24q1.2948,0,2.22.0479.9228.0483,1.56.1318a4.965,4.965,0,0,1,1.0566.24,3.9515,3.9515,0,0,1,.7559.372,2.8139,2.8139,0,0,1,1.0078,1.26,5.7358,5.7358,0,0,1,.36,2.2441,7.5807,7.5807,0,0,1-.3242,2.4121,6.1592,6.1592,0,0,1-.8525,1.668,4.65,4.65,0,0,0-.3721.5278.9251.9251,0,0,0-.1074.4561,2.7926,2.7926,0,0,0,.0957.6719,10.1071,10.1071,0,0,0,.36,1.08l1.7041,4.68a.4714.4714,0,0,1-.0488.36.3092.3092,0,0,1-.2871.168H371.85a4.4775,4.4775,0,0,1-.8633-.0718,1.5916,1.5916,0,0,1-.6484-.2881,2.018,2.018,0,0,1-.5156-.6,5.8111,5.8111,0,0,1-.4444-.9839l-.9844-2.76a2.1758,2.1758,0,0,0-.6718-1.104,2.2075,2.2075,0,0,0-1.2237-.2637h-2.9043a.7013.7013,0,0,0-.456.1079.69.69,0,0,0-.12.4917v4.8a.7937.7937,0,0,1-.1319.5278.6166.6166,0,0,1-.4677.1441h-2.16q-.3354,0-.3359-.3838Zm9.624,4.416a3.7634,3.7634,0,0,0-.1563-1.2124,1.434,1.434,0,0,0-.4677-.6836,1.7767,1.7767,0,0,0-.8877-.3481,12.7411,12.7411,0,0,0-1.9678-.1079h-.7207q-.3838,0-.7559.0117c-.248.0083-.48.0161-.6963.0239s-.3955.0122-.54.0122q-.3589.0242-.3594.48V7.32a.811.811,0,0,0,.1075.5044.647.647,0,0,0,.4687.12h3.4561a7.6,7.6,0,0,0,.8759-.0356,3.286,3.286,0,0,0,.5157-.1079.9636.9636,0,0,0,.3476-.2642,2.2394,2.2394,0,0,0,.3721-.5639,4.3739,4.3739,0,0,0,.2881-.816A4.0988,4.0988,0,0,0,369.5464,5.1362Z" style="fill:#fff"/>
    <path d="M377.6821,15.144a2.0293,2.0293,0,0,1-.624,1.0562,2.168,2.168,0,0,1-1.3916.36h-1.1523a.2764.2764,0,0,1-.2286-.108.3682.3682,0,0,1-.0839-.228,1.2962,1.2962,0,0,1,.0488-.312c.0312-.1279.0713-.272.1191-.4321l3.2647-10.9678q.2388-.8643.4678-1.4761a8.5136,8.5136,0,0,1,.4443-1.02,4.8114,4.8114,0,0,1,.4072-.66,2.2927,2.2927,0,0,1,.4082-.42,3.119,3.119,0,0,1,1.2-.5879A7.7826,7.7826,0,0,1,382.65.12a8.0685,8.0685,0,0,1,2.0039.1919,2.7952,2.7952,0,0,1,1.1406.5762,1.8466,1.8466,0,0,1,.336.4077,5.2517,5.2517,0,0,1,.3476.6724q.18.4079.3838,1.02t.4444,1.4516l3.1914,11.3521c.0488.16.0761.26.0839.3a1.0884,1.0884,0,0,1,.0127.2036c0,.1763-.1123.2642-.3359.2642h-1.2725a2.1627,2.1627,0,0,1-1.4043-.36,2.2525,2.2525,0,0,1-.6357-1.1279l-.9834-3.4082a.8233.8233,0,0,0-.3486-.5279,2.048,2.048,0,0,0-.8516-.12h-4.92a1.8282,1.8282,0,0,0-.8164.1318,1.1387,1.1387,0,0,0-.4082.6841ZM385.0259,7.92a1.9656,1.9656,0,0,0-.0723-.3838q-.0717-.2879-.1914-.7441l-.4805-1.752q-.1436-.5038-.2519-.8281a3.9055,3.9055,0,0,0-.2041-.5156,2.5081,2.5081,0,0,0-.18-.312,1.53,1.53,0,0,0-.1563-.1924,1.7049,1.7049,0,0,0-.3955-.2036,1.8143,1.8143,0,0,0-.6123-.084,2.2252,2.2252,0,0,0-.6836.084,2.0974,2.0974,0,0,0-.4443.2036,2.0058,2.0058,0,0,0-.4561.6,7.526,7.526,0,0,0-.5283,1.416l-.5039,1.68c-.0635.24-.12.4521-.1679.6357a1.81,1.81,0,0,0-.0713.396.4376.4376,0,0,0,.1914.42,1.627,1.627,0,0,0,.72.1084h3.6963a1.0487,1.0487,0,0,0,.6484-.1323A.5106.5106,0,0,0,385.0259,7.92Z" style="fill:#fff"/>
    <path d="M408.8335,13.6562a5.3862,5.3862,0,0,1-.18,1.5718,2.5552,2.5552,0,0,1-.4443.876,1.9564,1.9564,0,0,1-.9121.4922,7.3887,7.3887,0,0,1-1.8955.18,6.9408,6.9408,0,0,1-1.7159-.1558,2.5418,2.5418,0,0,1-.9-.42,3.6231,3.6231,0,0,1-.6718-.8159,7.3026,7.3026,0,0,1-.6485-1.3682L397.7222,3.72a1.7172,1.7172,0,0,0-.4209-.6963.9564.9564,0,0,0-.6358-.1919c-.2724,0-.4433.0562-.5156.168a.9987.9987,0,0,0-.1084.5278V15.144q0,.9126-.4434,1.1641a2.9044,2.9044,0,0,1-1.3808.252h-.6719q-.3588,0-.3594-.4322V3.5039a6.8124,6.8124,0,0,1,.18-1.8359,2.0565,2.0565,0,0,1,.54-.9239,2.2018,2.2018,0,0,1,.9-.4321,6.9312,6.9312,0,0,1,1.7392-.168,7.5045,7.5045,0,0,1,1.7168.1441,2.4177,2.4177,0,0,1,.8994.4082,2.7148,2.7148,0,0,1,.6485.8276,12.948,12.948,0,0,1,.6953,1.5723l3.7685,10.2a1.1091,1.1091,0,0,0,1.0323.84q.4071,0,.5156-.2641A1.7843,1.7843,0,0,0,405.93,13.2V1.7041A1.5055,1.5055,0,0,1,406.23.66a1.886,1.886,0,0,1,1.332-.3243h.9121q.3589,0,.3594.4082Z" style="fill:#fff"/>
    <path d="M426.5464,14.9043a1.25,1.25,0,0,1-.2041.7559,1.3062,1.3062,0,0,1-.7315.42q-.9126.216-2.3046.42a21.3171,21.3171,0,0,1-3.0723.2041,19.6753,19.6753,0,0,1-2.1953-.1079,12.1433,12.1433,0,0,1-1.6446-.2881,5.6193,5.6193,0,0,1-1.1992-.4438,5.3731,5.3731,0,0,1-.8642-.5523,4.2489,4.2489,0,0,1-.7559-.8281,5.3225,5.3225,0,0,1-.66-1.3076,9.9281,9.9281,0,0,1-.4561-1.896,17.42,17.42,0,0,1-.168-2.5923,15.1467,15.1467,0,0,1,.2158-2.7241,10.37,10.37,0,0,1,.5518-1.9917,6.3227,6.3227,0,0,1,.7441-1.38,5.6417,5.6417,0,0,1,.792-.8882A5.6014,5.6014,0,0,1,416.85.564,14.1276,14.1276,0,0,1,420.7388.12a28.7677,28.7677,0,0,1,2.9277.12,4.4214,4.4214,0,0,1,1.6318.4077,1.4885,1.4885,0,0,1,.4561.3721,2.6694,2.6694,0,0,1,.3721.5762,5.13,5.13,0,0,1,.2636.66,1.9849,1.9849,0,0,1,.1084.6.3325.3325,0,0,1-.1318.288.2912.2912,0,0,1-.2764.0479q-.769-.0952-2.04-.2158-1.2729-.12-2.6875-.12a13.0847,13.0847,0,0,0-2.916.2641,3.5139,3.5139,0,0,0-1.62.7442,4.7618,4.7618,0,0,0-.9239,1.644,8.394,8.394,0,0,0-.4443,2.9639,11.2977,11.2977,0,0,0,.3721,3.3359A2.9963,2.9963,0,0,0,416.73,13.32a3.2322,3.2322,0,0,0,1.2363.5283,8.18,8.18,0,0,0,1.8838.1919q1.0562,0,1.8242-.0717t1.2236-.1441a.665.665,0,0,0,.5284-.7441V10.3682q0-.5282-.6-.5284h-2.5928q-.312,0-.3115-.36a1.8812,1.8812,0,0,1,.0839-.4917,3.6773,3.6773,0,0,1,.2276-.6,4.8462,4.8462,0,0,1,.3008-.54,1.16,1.16,0,0,1,.3-.3359.9655.9655,0,0,1,.4922-.1924,6.0982,6.0982,0,0,1,.8515-.0478h3.4326a1.2352,1.2352,0,0,1,.6719.1679q.2637.1685.2637.816Z" style="fill:#fff"/>
    <path d="M436.7944,2.9282q-.9126,0-1.5361.0239T434.0825,3a.75.75,0,0,0-.5166.1562.8155.8155,0,0,0-.1074.4917V6.5522q0,.408.5518.4078h7.1523q.4321,0,.4316.4082a1.625,1.625,0,0,1-.0839.4438,5.3542,5.3542,0,0,1-.2159.5762,3.46,3.46,0,0,1-.3125.5639,2.09,2.09,0,0,1-.3476.4078,1.0932,1.0932,0,0,1-.5039.144c-.208.0161-.4727.0239-.792.0239h-5.3037a.5746.5746,0,0,0-.4561.1441.6577.6577,0,0,0-.12.4321V13.2a.7473.7473,0,0,0,.1553.5518.84.84,0,0,0,.5644.144q.4073,0,.9483.0122.5389.0124,1.5713.0117,1.7519,0,3.0605-.0478t2.3877-.12q.4087,0,.4082.3842a1.76,1.76,0,0,1-.1318.6118,3.7649,3.7649,0,0,1-.336.6719,4.896,4.896,0,0,1-.4326.5884,1.4562,1.4562,0,0,1-.42.36,2.1278,2.1278,0,0,1-.5039.12q-.3356.0483-.9121.0718t-1.44.0361q-.8643.0117-2.04.0117-1.8486,0-3.1084-.0117t-2.34-.06a.8576.8576,0,0,1-.372-.12c-.1524-.08-.2276-.2558-.2276-.5278v-15A.403.403,0,0,1,430.4946.48a.8283.8283,0,0,1,.3233-.0957q.624-.0241,1.2363-.0362t1.26-.0239c.4326-.0078.8916-.0161,1.38-.0239s1.0206-.0122,1.5967-.0122h1.6914c.5528,0,1.0518.0083,1.5.0239s.8321.0361,1.1524.06a2.7492,2.7492,0,0,1,.6719.1079.9037.9037,0,0,1,.3476.3242,3.8556,3.8556,0,0,1,.3359.5757,4.8843,4.8843,0,0,1,.2647.6723,2.09,2.09,0,0,1,.1074.6119c0,.2724-.1514.4082-.456.4082-.3037-.0161-.6563-.0323-1.0557-.0484s-.82-.0317-1.26-.0478-.9-.0279-1.38-.0362S437.2583,2.9282,436.7944,2.9282Z" style="fill:#fff"/>
</svg>