<?xml version="1.0" encoding="utf-8"?>
<!-- Generator: Adobe Illustrator 24.1.3, SVG Export Plug-In . SVG Version: 6.00 Build 0)  -->
<svg version="1.1" id="Layer_1" xmlns="http://www.w3.org/2000/svg" xmlns:xlink="http://www.w3.org/1999/xlink" x="0px" y="0px"
	 width="577px" height="577px" viewBox="0 0 577 577" style="enable-background:new 0 0 577 577;" xml:space="preserve">
<style type="text/css">
	.st0{fill:#005866;}
	.st1{fill:none;stroke:#3D6890;stroke-width:0.5;stroke-miterlimit:10;}
	.st2{fill:#3C3C3B;}
	.st3{fill:#4A4A49;}
	.st4{fill:#575756;}
	.st5{fill:none;stroke:#575756;stroke-width:0.5;stroke-miterlimit:10;}
	.st6{fill:none;stroke:#686A82;stroke-miterlimit:10;}
	.st7{fill:none;stroke:#966D1B;stroke-width:0.5;stroke-miterlimit:10;}
	.st8{fill:none;stroke:#A03C03;stroke-width:0.5;stroke-miterlimit:10;}
	.st9{fill:none;stroke:#007778;stroke-miterlimit:10;}
	.st10{fill:none;stroke:#3D6992;stroke-miterlimit:10;}
</style>
<path class="st0" d="M271.4,81l-0.1-0.1c-20.9-25.4-44.7-54.1-68.1-60.2l0.1-0.5c23.6,6.1,47.4,34.9,68.4,60.3l0.1,0.1L271.4,81z"/>
<path class="st1" d="M276.2,456c11.6,3,26.5,18.8,43.8,37.1c21.1,22.3,45,47.7,67.3,53.4c7.7,2,14.7,1.5,21.2-1.4
	C438,531.7,432.7,483.5,428,441c-2.9-26.5-5.5-49.4,1.3-59.5c6.4-9.7,29.2-15.2,55.4-21.5c40.6-9.8,86.6-21,88.3-50.3
	c1.7-29-42-46.6-80.6-62.2C466.6,237,444.3,228,439.2,217c-5.3-11.4,1.4-34.8,9.1-61.9c11.6-40.6,24.7-86.6,0.4-103.2
	c-2.3-1.6-4.9-2.8-7.6-3.5l0,0"/>
<path class="st2" d="M217.6,575.9l-0.4-0.1c-29.4-7.6-32.7-56-35.6-98.7c-1.8-26.3-3.5-51.1-11.5-58.4c-2.7-2.5-7-4.4-13.2-6
	c-11.6-3-28.2-4.2-45.8-5.4l-0.2,0c-20.8-1.5-44.4-3.2-64.1-8.2c-26.2-6.8-41.1-18.5-45.7-36c-8.5-32.3,36-60.2,71.8-82.6
	c21.8-13.6,42.3-26.5,45-36.8c2.9-10.9-8.6-33.3-20.8-56.9l0-0.1C77,147.5,54.1,103.1,76.5,80.2c9.9-10.1,25.1-12.4,46.4-6.9
	c19.1,4.9,40,15.1,60.2,25c17,8.3,33.1,16.2,45.5,19.4c6.2,1.6,11.1,1.9,14.7,1c11.6-3.1,25.9-24.8,41-47.8
	C308,34.8,334.8-6.1,364.4,1.6l0.3,0.1c29.3,7.9,31.3,56.7,33.1,99.7c1.1,26.5,2.2,51.6,10,59c2.6,2.4,6.6,4.3,12.5,5.8
	c11.5,3,28.4,4,46.2,5.1l0.2,0c21.3,1.3,45.4,2.7,65.1,7.8c24.6,6.4,38.6,17.4,42.9,33.8c8.9,33.9-36.4,63-72.7,86.3
	c-22.7,14.6-42.3,27.2-45.4,37.8c-2.9,10.2,9.2,32,22,55l-0.2,0.2l0.2-0.1c20.7,37.1,44.2,79.3,23.7,100.7
	c-10.6,11.1-27.2,13.5-50.8,7.4c-18.6-4.8-38.7-14-58.1-22.9l-0.2-0.1c-16.5-7.5-32-14.6-44.2-17.8c-7.1-1.8-12.5-2.2-16.5-1.2
	c-11.2,2.9-24.6,24.8-38.9,48C271.2,542.1,246.1,582.9,217.6,575.9z M157.1,412.2c6.2,1.6,10.6,3.6,13.4,6.1
	c8.2,7.4,9.9,32.3,11.7,58.7c2.9,42.6,6.2,90.8,35.2,98.3l0.4,0.1c28.1,6.9,53.1-33.7,75.1-69.5c14.3-23.3,27.9-45.2,39.2-48.2
	c4.1-1.1,9.6-0.7,16.8,1.2c12.3,3.2,27.9,10.3,44.3,17.8l0.2,0.1c19.4,8.9,39.4,18,58,22.8c23.4,6.1,39.9,3.7,50.3-7.2
	c20.2-21.2-3.1-63.1-23.8-100.1l0-0.1c-12.9-23.1-25.1-45-22.1-55.4c3.1-10.8,22.8-23.4,45.5-38c36.3-23.3,81.4-52.2,72.6-85.8
	c-4.2-16.2-18.1-27.1-42.5-33.4c-19.7-5.1-43.8-6.5-65-7.8l-0.2,0c-17.9-1.1-34.7-2.1-46.3-5.1c-5.9-1.5-10.1-3.5-12.7-5.9
	c-8-7.5-9.1-32.7-10.2-59.3c-1.8-42.9-3.8-91.5-32.7-99.3l-0.3-0.1c-29.2-7.6-55.9,33.1-79.5,69c-15.2,23.1-29.5,45-41.3,48.1
	c-3.7,1-8.6,0.7-15-1c-12.5-3.2-28.6-11.1-45.6-19.4c-20.2-9.8-41-20-60.1-24.9c-21.1-5.4-36.1-3.3-45.9,6.7
	c-22.2,22.7,0.6,66.9,20.7,105.9l0,0.1c12.3,23.7,23.8,46.2,20.9,57.3c-2.8,10.5-23.4,23.4-45.3,37.1c-35.6,22.3-79.9,50-71.5,82
	c4.5,17.2,19.3,28.9,45.3,35.6c19.6,5.1,43.2,6.8,64,8.2l0.2,0C128.9,408,145.5,409.2,157.1,412.2z M218.2,573.6l-0.3-0.1
	c-27.8-7.2-31-54.7-33.9-96.7c-1.9-27.9-3.5-52-12.3-59.9c-3-2.7-7.6-4.9-14.1-6.5c-11.8-3.1-28.5-4.2-46.2-5.5l-0.2,0
	c-20.7-1.5-44.2-3.1-63.7-8.2c-25.3-6.5-39.7-17.8-44-34.3c-8-30.7,35.6-58,70.7-80c23.1-14.5,43.1-27,46.1-38.2
	c3.1-11.8-8.1-33.5-21-58.6l0-0.1c-19.9-38.4-42.4-82-21-103.8c9.3-9.5,23.7-11.5,44.1-6.2c18.8,4.9,39.6,15,59.6,24.8l0.1,0
	c17.1,8.4,33.3,16.3,46,19.5c6.7,1.7,11.9,2,15.9,1c12.5-3.3,26.3-24.3,42.3-48.7c23.3-35.5,49.6-75.6,77.6-68.3l0.3,0.1
	c27.6,7.4,29.6,55.3,31.4,97.6c1.2,28.2,2.2,52.5,10.8,60.5c2.8,2.7,7.2,4.7,13.5,6.3c11.7,3,28.6,4,46.4,5.1l0.4,0
	c21.2,1.3,45.1,2.7,64.7,7.8c23.7,6.1,37.2,16.6,41.2,32.1c8.5,32.3-36,60.9-71.8,83.8c-23.1,14.8-43,27.6-46.3,39.1
	c-3.2,11.1,8.6,32.3,22.3,56.8c20.3,36.5,43.3,77.8,24,98c-9.9,10.4-25.8,12.6-48.5,6.7c-18.5-4.8-38.4-13.9-57.7-22.7
	c-16.6-7.6-32.3-14.8-44.9-18c-7.5-1.9-13.3-2.3-17.7-1.2c-12.1,3.2-25.1,24.4-40.3,49l0,0.1C269.6,540.3,245,580.2,218.2,573.6
	L218.2,573.6z M157.7,409.9c6.6,1.7,11.3,3.9,14.3,6.7c8.9,8,10.5,32.2,12.4,60.2c2.8,41.8,6.1,89.1,33.5,96.2l0.3,0.1
	c26.5,6.5,51-33.3,72.6-68.4l0.3,0.1l-0.2-0.1c15.2-24.7,28.3-46,40.6-49.2c4.5-1.2,10.4-0.8,18,1.2c12.6,3.3,28.3,10.4,45,18.1
	c19.3,8.8,39.2,17.9,57.7,22.7c22.5,5.8,38.2,3.7,48-6.6c19.1-20-3.9-61.1-24.1-97.4c-13.7-24.6-25.6-45.9-22.3-57.2
	c3.4-11.6,23.4-24.5,46.5-39.4c35.6-22.9,79.9-51.3,71.6-83.3c-4-15.3-17.4-25.7-40.9-31.8c-19.5-5-43.5-6.5-64.6-7.7l-0.4,0
	c-17.9-1.1-34.8-2.1-46.5-5.1c-6.3-1.6-10.8-3.7-13.7-6.5c-8.7-8.1-9.7-32.6-10.9-60.9c-1.8-42.1-3.8-89.8-31-97.2l-0.3-0.1
	c-27.6-7.2-53.9,32.8-77,68.1c-16.1,24.5-30,45.7-42.6,49c-4.1,1.1-9.4,0.8-16.1-1c-12.7-3.3-28.9-11.2-46.1-19.6l-0.1,0
	c-20-9.8-40.8-19.9-59.5-24.7c-20.2-5.2-34.5-3.2-43.6,6.1c-21.1,21.5,1.4,64.9,21.1,103.2l0,0.1c13,25.2,24.3,47,21.1,59
	c-3,11.4-23,23.9-46.2,38.5C39.6,304.8-3.9,332,4,362.3c4.3,16.3,18.6,27.4,43.6,33.9c19.4,5,42.9,6.7,63.6,8.2l0.2,0
	C129.1,405.7,145.9,406.9,157.7,409.9z"/>
<path class="st3" d="M203.7,567.8c-0.4-0.1-0.9-0.2-1.3-0.4c-29-9-29.5-57.2-29.9-99.8c-0.3-26.1-0.5-50.8-8-58.5
	c-3.1-3.2-8.7-5.8-17.1-8c-11-2.8-25.4-4.6-40.7-6.5c-18.3-2.3-37.3-4.6-54.5-9.1c-30.7-8-46.9-20.5-50.9-39.4
	c-6.7-32,36.6-55.9,74.9-77c22.3-12.3,43.3-23.9,46.6-33.9c3.5-10.7-6.6-33.3-17.2-57.3C87.8,138.1,67.7,92.9,91.7,71.4
	c9.5-8.5,22.6-10.4,40.3-5.9c20.1,5.2,43.3,18.3,63.8,29.8l0.1,0.1c17.7,9.9,34.4,19.3,46.7,22.5c4.5,1.2,8.2,1.4,11.1,0.8
	c11.4-2.4,26.5-23,42.5-44.8c24.7-33.8,52.7-72.1,80.9-64.8c0.5,0.1,1.1,0.3,1.8,0.5c28.7,9.5,28.2,58,27.7,100.9
	c-0.3,26.3-0.6,51.2,6.8,59c2.9,3,8.1,5.5,15.9,7.5c11,2.8,25.8,4.5,41.5,6.2l0.2,0c18.2,2,38.7,4.3,56.3,8.9
	c28.2,7.3,43.7,19.3,47.4,36.7c7.1,33.5-38.9,59.7-75.8,80.7l-0.1,0c-22.2,12.6-43.1,24.6-46.6,34.8c-3.5,10.1,7,32.2,18.1,55.6
	c18.1,38.1,38.5,81.3,16.4,101.7c-10,9.2-24.2,11.2-43.4,6.2c-19.8-5.1-41.5-16.7-62.5-27.8c-17.4-9.2-33.8-18-46.1-21.2
	c-5-1.3-9-1.6-12.3-0.9c-11.1,2.3-25.6,23-40.9,44.8l0,0.1C257.9,536.7,231.1,574.9,203.7,567.8z M147.5,400.7
	c8.5,2.2,14.2,4.9,17.4,8.1c7.7,7.9,7.9,32.6,8.2,58.8c0.4,42.4,0.9,90.4,29.5,99.3c0.4,0.1,0.8,0.2,1.3,0.4
	c27.1,7,53.7-31,77.2-64.5l0.3,0.1l-0.2-0.1c15.4-22,29.9-42.7,41.3-45c3.3-0.7,7.4-0.4,12.5,1c12.4,3.2,28.8,11.9,46.2,21.2
	c21,11.2,42.7,22.7,62.4,27.8c19,4.9,33.1,2.9,42.9-6.1c21.9-20.1,1.5-63.1-16.5-101c-11.2-23.6-21.7-45.8-18.1-56
	c3.6-10.5,24.6-22.4,46.9-35.1l0.1,0c36.8-21,82.5-47,75.5-80.2c-3.7-17.2-19.1-29.1-47-36.3c-17.6-4.5-38.2-6.8-56.3-8.8l-0.2,0
	c-15.7-1.8-30.6-3.4-41.6-6.2c-7.9-2.1-13.2-4.6-16.1-7.7c-7.5-8-7.2-33-6.9-59.4c0.5-42.7,1-91.1-27.4-100.4
	c-0.7-0.2-1.2-0.4-1.8-0.5c-27.9-7.2-55.7,30.9-80.3,64.6c-16,21.9-31.2,42.7-42.8,45.1c-3,0.6-6.7,0.3-11.3-0.8
	c-12.4-3.2-29.1-12.6-46.8-22.6l-0.1-0.1c-20.5-11.5-43.7-24.5-63.7-29.7c-17.5-4.5-30.6-2.7-39.9,5.7c-23.7,21.2-3.7,66.2,14,106
	c10.7,24.1,20.8,46.8,17.3,57.7c-3.3,10.2-24.4,21.9-46.8,34.2c-38.1,21-81.3,44.8-74.7,76.5c3.9,18.7,20,31.1,50.5,39
	c17.2,4.4,36.1,6.8,54.4,9.1C122,396.1,136.5,397.9,147.5,400.7L147.5,400.7z M204.2,565.5c-0.4-0.1-0.8-0.2-1.2-0.3
	c-27.4-8.5-27.9-55.8-28.3-97.6c-0.3-27.7-0.5-51.7-8.7-60c-3.4-3.5-9.4-6.3-18.2-8.6c-11.1-2.9-25.6-4.7-41-6.6l-0.1,0
	c-18.2-2.3-37.1-4.6-54.1-9C23,375.6,7.3,363.7,3.6,345.7c-6.4-30.3,38-54.8,73.7-74.5c23.7-13.1,44.2-24.3,47.7-35.2
	c3.7-11.5-6-33.5-17.3-59C90.3,137.9,70.5,93.5,93.2,73.2c8.8-8,21.3-9.7,38.2-5.3c19.8,5.1,42.9,18.1,63.3,29.5l0.2,0.1
	c17.8,10,34.6,19.4,47.1,22.7c4.9,1.3,8.8,1.5,12.1,0.9c12.3-2.5,26.9-22.6,43.9-45.7l0.2-0.3c24.1-33,51.5-70.5,78.2-63.6
	c0.6,0.1,1.1,0.3,1.7,0.5c27.1,8.9,26.6,56.6,26.1,98.7l-0.3,0.1l0.3,0c-0.3,27.9-0.6,52.1,7.4,60.6c3.2,3.4,8.7,6,17,8.2
	c11.1,2.9,26,4.5,41.8,6.3l0.2,0c19,2.1,38.6,4.3,56,8.8c27.2,7,42.2,18.5,45.7,35c6.7,31.9-38.4,57.6-74.6,78.2
	c-23.6,13.4-43.9,25-47.8,36.2c-3.8,11,6.4,32.5,18.2,57.3c17.7,37.4,37.8,79.8,16.9,99c-9.4,8.6-22.9,10.5-41.3,5.7
	c-19.5-5.1-41.1-16.5-61.9-27.5l-0.2-0.1c-17.5-9.3-34-18.1-46.6-21.3c-5.4-1.4-9.7-1.7-13.3-1c-12,2.5-26,22.5-42.3,45.7l-0.1,0.1
	C256.4,534.8,230.2,572.2,204.2,565.5L204.2,565.5z M148,398.5c8.9,2.3,15,5.2,18.4,8.7c8.3,8.5,8.5,32.6,8.8,60.4
	c0.4,41.6,0.9,88.8,27.9,97.1c0.4,0.1,0.8,0.2,1.2,0.3c25.6,6.6,51.7-30.7,74.8-63.6l0.1-0.1c16.3-23.3,30.4-43.4,42.6-45.9
	c3.7-0.8,8.1-0.4,13.5,1c12.7,3.3,29.2,12.1,46.7,21.4l0.2,0.1c20.8,11,42.3,22.5,61.8,27.5c18.2,4.7,31.6,2.9,40.8-5.6
	c20.6-18.9,0.6-61.1-17-98.3c-11.8-25-22.1-46.6-18.2-57.8c3.9-11.3,24.3-22.9,48-36.4c36.1-20.6,81.1-46.2,74.4-77.7
	c-3.5-16.3-18.3-27.6-45.3-34.6c-17.4-4.5-37-6.7-56-8.8l-0.2,0c-15.8-1.8-30.7-3.4-41.9-6.3c-8.4-2.2-14-4.9-17.2-8.3
	c-8.2-8.7-7.9-32.9-7.6-60.9v-0.1c0.5-41.9,1-89.4-25.8-98.2c-0.6-0.2-1.1-0.3-1.7-0.5c-26.3-6.8-53.6,30.5-77.6,63.4l-0.2,0.3
	c-17,23.3-31.7,43.4-44.2,45.9c-3.4,0.7-7.4,0.4-12.4-0.9c-12.6-3.3-29.4-12.7-47.3-22.7l-0.2-0.1c-20.4-11.4-43.4-24.4-63.1-29.5
	c-16.7-4.3-29-2.6-37.7,5.2c-22.4,20.1-2.8,64.3,14.5,103.3c11.3,25.5,21.1,47.6,17.3,59.3c-3.6,11.1-24.1,22.4-47.9,35.5
	c-35.6,19.6-79.8,44-73.5,73.9c3.7,17.7,19.2,29.6,48.8,37.2c17,4.4,35.8,6.7,54,9l0.1,0C122.4,393.8,136.9,395.6,148,398.5
	L148,398.5z"/>
<path class="st4" d="M190.1,559.9c-1-0.3-2-0.6-3-1c-28.2-10.7-25.9-58.5-23.8-100.7c1.3-25.9,2.5-50.4-4.5-58.6
	c-3.6-4.2-11-7.7-23.5-10.9c-9.6-2.5-21-4.5-33.2-6.7l-0.1,0c-13.8-2.5-28-5.1-41.6-8.6c-23.3-6-54.9-17.2-59.1-44.1
	c-5-31.7,39.2-52.8,78.1-71.5c22.8-10.9,44.3-21.2,48-31c4-10.4-4.6-33.3-13.6-57.5c-15.2-40.6-32.4-86.7-7-106.8
	c9-7.1,20.6-8.7,35.6-4.9c21,5.4,45.1,21,66.5,34.7l0.1,0c17.9,11.5,34.8,22.4,46.8,25.5c2.7,0.8,5.6,1,8.4,0.7
	c11.2-1.7,27.1-21.2,43.9-41.8c25.7-31.6,54.8-67.4,81.8-60.4c1.1,0.3,2.2,0.6,3.2,1c28.2,11,25,59.3,22.3,102l0,0.1
	c-1.7,26.1-3.3,50.8,3.6,59.2c3.2,3.9,10.1,7.1,21.1,10c10,2.6,22.3,4.6,35.3,6.8l0.3,0c15,2.5,30.5,5,44.9,8.8
	c21.3,5.5,50.1,15.7,54.2,40.7c5.4,33-39.3,55.4-78.7,75.1c-22.7,11.4-44.1,22.1-48.1,32c-4,9.9,4.8,32.4,14.2,56.1
	c15.4,39.1,32.9,83.4,9,102.6c-9.4,7.6-21.7,9.2-37.6,5.1c-20.7-5.4-44.5-20-65.4-32.8l-0.1-0.1c-17.7-10.8-34.3-21.1-46.4-24.2
	c-3-0.9-6.1-1.2-9.1-0.8c-11.1,1.7-26.6,21.1-42.9,41.8l-0.1,0.1C244.7,531.3,216.5,566.7,190.1,559.9z M135.4,388.2
	c12.5,3.2,20.1,6.7,23.7,11c7.1,8.4,5.9,32.9,4.7,58.9c-2.1,42.1-4.4,89.7,23.5,100.3c1,0.4,1.9,0.7,2.9,0.9
	c26.1,6.8,54.2-28.5,78.9-59.6l0.1-0.1c16.5-20.7,32-40.2,43.3-41.9c3.1-0.3,6.3-0.1,9.3,0.8c12.2,3.2,28.9,13.4,46.6,24.3l0.1,0.1
	c20.9,12.9,44.7,27.4,65.3,32.8c15.7,4.1,27.9,2.4,37.1-5c23.6-19,6.2-63.1-9.2-102c-9.4-23.9-18.3-46.4-14.2-56.5
	c4.1-10.2,25.6-20.9,48.3-32.3c39.3-19.6,83.7-41.9,78.5-74.6c-4-24.7-32.6-34.8-53.8-40.3c-14.4-3.7-29.9-6.3-44.9-8.8l-0.3,0
	c-13.1-2.2-25.4-4.2-35.4-6.8c-11.1-2.9-18.1-6.2-21.4-10.2c-7-8.5-5.4-33.3-3.7-59.5l0.3-0.1l-0.3,0c2.7-42.4,5.9-90.5-22-101.4
	c-1-0.4-2.1-0.7-3.2-1c-26.7-6.9-55.7,28.7-81.3,60.2c-16.9,20.8-32.8,40.4-44.3,42.1c-2.9,0.3-5.8,0.1-8.6-0.8
	c-12.1-3.1-29.1-14-47-25.5l-0.1,0c-21.3-13.7-45.5-29.3-66.3-34.7c-14.8-3.8-26.2-2.3-35.1,4.8c-25.1,19.8-7.9,65.7,7.2,106.2
	c9.1,24.3,17.7,47.3,13.6,57.8c-3.8,9.9-25.4,20.3-48.3,31.2C40.9,276.9-3,298,1.9,329.3c4.1,26.6,35.5,37.6,58.7,43.6
	c13.5,3.5,27.8,6.1,41.5,8.6l0.1,0C114.3,383.7,125.8,385.8,135.4,388.2z M190.7,557.7c-0.9-0.2-1.9-0.5-2.8-0.9
	c-26.7-10.1-24.4-57-22.4-98.5c1.4-27.5,2.5-51.3-5.1-60.2c-3.9-4.6-11.7-8.3-24.6-11.6c-9.6-2.5-21.1-4.6-33.2-6.8l-0.4-0.1
	c-13.7-2.5-27.8-5-41.2-8.5C24.9,361.8,6.7,348.4,3.7,329c-4.7-30,40.5-51.6,76.7-69c24.3-11.6,45.2-21.7,49.2-32.2
	c4.3-11.2-4-33.4-13.6-59.1l0.2-0.2l-0.2,0.1c-14.9-39.9-31.8-85.1-7.8-104.1c8.4-6.6,19.4-8.1,33.5-4.4
	c20.5,5.3,44.6,20.8,65.8,34.4c18.1,11.6,35.1,22.6,47.6,25.8c3,0.9,6.2,1.2,9.3,0.8c12.1-1.8,27.6-20.8,45.4-42.7
	c25.2-31,53.8-66.2,79.4-59.5c1,0.3,2,0.6,3,1c26.6,10.4,23.5,57.9,20.8,99.7l0,0.1c-1.8,27.8-3.3,51.7,4.1,60.8
	c3.6,4.3,10.7,7.7,22.3,10.7c10.1,2.6,22.4,4.6,35.5,6.8l0.3,0c14.9,2.5,30.4,5,44.8,8.7c32.9,8.5,49.6,20.9,52.5,38.9
	c5.1,31.4-40.7,54.3-77.4,72.6c-24.1,12.1-44.9,22.4-49.3,33.2c-4.4,10.8,4.2,32.6,14.2,57.8c15.1,38.4,32.3,81.8,9.7,100
	c-8.8,7.1-20.4,8.6-35.5,4.7c-20.3-5.3-44-19.8-64.8-32.6l-0.1-0.1c-17.8-10.9-34.7-21.3-47.1-24.5c-3.3-1-6.7-1.3-10-0.9
	c-12,1.8-27,20.7-44.4,42.5l-0.3,0.4C243.3,529.4,215.6,564.1,190.7,557.7L190.7,557.7z M136,386c13,3.4,20.9,7.1,24.9,11.8
	c7.7,9.1,6.6,32.9,5.2,60.5c-2,41.3-4.3,88,22,98c0.9,0.3,1.8,0.6,2.7,0.9c24.6,6.4,52.1-28.2,76.4-58.7l0.3-0.4
	c17.5-21.9,32.5-40.9,44.7-42.7c3.4-0.4,6.9-0.1,10.3,0.9c12.5,3.2,29.4,13.6,47.3,24.6l0.1,0.1c20.8,12.8,44.4,27.3,64.7,32.5
	c15,3.9,26.4,2.4,35.1-4.6c22.2-17.9,5.2-61.2-9.9-99.3c-10-25.4-18.6-47.3-14.2-58.2c4.4-11,25.3-21.4,49.5-33.5
	c36.6-18.3,82.2-41.1,77.2-72.1c-2.9-17.8-19.4-30-52.1-38.4c-14.4-3.7-29.8-6.3-44.8-8.7l-0.2,0c-13.2-2.2-25.5-4.2-35.6-6.8
	c-11.8-3-18.9-6.5-22.6-10.9c-7.6-9.2-6.1-33.3-4.3-61.1l0-0.1c2.7-41.7,5.8-88.9-20.5-99.2c-0.9-0.4-1.9-0.7-2.9-0.9
	c-25.3-6.5-53.8,28.5-78.9,59.4c-17.9,22-33.4,41.1-45.7,42.9c-3.2,0.4-6.4,0.1-9.5-0.8c-12.5-3.2-29.6-14.2-47.7-25.9
	c-21.2-13.6-45.2-29.1-65.7-34.4c-14-3.6-24.8-2.2-33.1,4.3c-23.7,18.8-6.9,63.8,7.9,103.5l0,0.1c9.6,25.8,17.9,48.1,13.6,59.4
	c-4.1,10.8-25.1,20.8-49.4,32.5c-36.2,17.4-81.1,38.9-76.5,68.5c3,19.2,21.1,32.5,57,41.8c13.4,3.5,27.5,6,41.2,8.5l0.4,0.1
	C114.9,381.4,126.3,383.5,136,386L136,386z"/>
<path class="st4" d="M176.3,552c-1.5-0.4-3-0.9-4.5-1.6c-27.5-12.4-22.3-59.8-17.8-101.6l0-0.1c2.8-25.7,5.4-50-1.1-58.7
	c-5.4-7.3-21-12.1-37.1-16.3c-5.1-1.3-10.4-2.6-16-3.9l-2.4-0.6c-6.3-1.5-13.5-3.2-20.7-5.1c-37.5-9.7-72.6-22.7-75.5-51.7
	c-3.2-31.4,41.7-49.7,81.2-66c23.3-9.6,45.3-18.6,49.6-28c4.6-10.1-2.5-33.2-10-57.7c-12.7-41.4-27-88.4-0.2-106.9
	c8.6-5.9,18.9-7.2,31.6-3.9c21.6,5.6,46.3,23.7,68.1,39.7c17.9,13.1,34.7,25.5,46.5,28.5c2,0.6,4.2,0.8,6.3,0.7
	c11.1-1,27.8-19.5,45.5-39c26.6-29.3,56.7-62.6,82.7-55.9c1.6,0.4,3.1,1,4.6,1.6c27.6,12.7,21.9,60.7,16.9,103
	c-3.1,26-6,50.5,0.4,59.4c4.8,6.6,19,11,30.8,14.1c7.6,2,16.2,3.9,24.5,5.7c8.9,2,19,4.2,28.8,6.7c29.3,7.6,63.3,19.8,66.3,46.7
	c3.6,32.6-41.7,52.2-81.6,69.5c-23.2,10-45,19.5-49.5,29.2c-4.6,9.8,2.7,32.5,10.3,56.6c12.8,40.1,27.2,85.6,1.6,103.6
	c-8.8,6.2-19.5,7.5-32.8,4.1c-21.4-5.5-45.7-22.7-67.2-37.9c-17.7-12.5-34.4-24.3-46.3-27.4c-2.2-0.6-4.5-0.9-6.7-0.7
	c-11.1,1-27.5,19.3-45,38.7l-0.1,0.1C231.7,525.9,202.1,558.7,176.3,552z M116,373.3c16.1,4.2,31.9,9.1,37.4,16.5
	c6.6,8.9,4,33.2,1.2,59l0,0.1c-4.5,41.7-9.7,88.9,17.5,101.1c1.4,0.6,2.9,1.2,4.4,1.6c25.5,6.6,54.9-26.1,80.9-55l0.1-0.1
	c17.5-19.4,34-37.8,45.3-38.8c2.3-0.2,4.7,0.1,6.9,0.7c12,3.1,28.7,14.9,46.4,27.5c21.5,15.2,45.8,32.4,67.1,37.9
	c13.2,3.4,23.8,2.1,32.4-4c25.3-17.8,10.9-63.1-1.8-103c-7.7-24.2-15-47-10.3-57c4.6-9.9,26.5-19.4,49.8-29.4
	c39.8-17.2,84.9-36.7,81.3-68.9c-2.9-26.6-36.8-38.7-65.9-46.3c-9.7-2.5-19.8-4.7-28.8-6.7c-8.3-1.8-16.9-3.7-24.5-5.7
	c-11.9-3.1-26.2-7.5-31.1-14.3c-6.5-9-3.6-33.6-0.5-59.7c5-42.2,10.7-90-16.6-102.6c-1.4-0.7-3-1.2-4.5-1.6
	C377,17.9,347,51,320.5,80.3c-17.8,19.6-34.6,38.2-45.9,39.2c-2.2,0.1-4.4-0.1-6.5-0.7c-11.9-3.1-28.8-15.5-46.6-28.6
	c-21.8-16-46.5-34.1-68-39.7c-12.6-3.3-22.8-2-31.2,3.8c-26.5,18.4-12.2,65.1,0.4,106.4c7.5,24.6,14.6,47.7,10,58
	c-4.3,9.6-26.4,18.7-49.8,28.3c-39.4,16.2-84,34.5-80.9,65.4c2.9,28.7,37.8,41.6,75.1,51.2c7.2,1.9,14.3,3.6,20.6,5.1l2.4,0.6
	C105.6,370.7,110.9,372,116,373.3L116,373.3z M176.9,549.8c-1.4-0.4-2.8-0.9-4.1-1.5c-26-11.7-20.9-58.2-16.4-99.2
	c3-27.4,5.6-51-1.5-60.4c-5.9-7.8-21.9-12.9-38.4-17.1c-5.2-1.4-10.7-2.7-16.5-4l-1.9-0.5c-6-1.4-13.5-3.2-20.6-5.1
	c-36.7-9.5-71-22.1-73.8-49.7c-3-29.6,41-47.7,79.7-63.6c24.8-10.2,46.2-18.9,50.8-29.2c4.9-10.9-1.9-33.3-9.9-59.3
	c-12.4-40.7-26.5-86.8-1.1-104.4c8-5.5,17.7-6.7,29.7-3.6c21.1,5.5,45.7,23.5,67.3,39.4c18,13.2,35,25.7,47.3,28.9
	c2.3,0.6,4.7,0.9,7.1,0.7c12-1.1,28.2-19,47-39.8c26.1-28.9,55.8-61.6,80.4-55.2c1.4,0.4,2.9,0.9,4.2,1.5
	c26.1,12,20.5,59.1,15.5,100.7c-3.3,27.6-6.1,51.4,0.8,61c4.1,5.7,13.7,10.2,32.1,14.9c7.8,2,16.7,4,24.6,5.7
	c9.4,2.1,19.1,4.2,28.7,6.7c28.6,7.4,61.8,19.2,64.6,44.7c3.4,30.9-43,51-80.2,67.1c-24.6,10.7-45.9,19.8-50.7,30.3
	c-4.9,10.6,2.1,32.7,10.2,58.3c12.5,39.4,26.7,83.9,2.5,101c-8.2,5.8-18.3,7-30.9,3.7c-20.9-5.4-45.1-22.5-66.5-37.6
	c-17.9-12.6-34.7-24.5-47-27.7c-2.4-0.7-5-1-7.5-0.8c-12,1.1-27.9,18.9-46.5,39.4C230.4,523.8,201.3,556.1,176.9,549.8L176.9,549.8z
	 M116.6,371.1c16.6,4.3,32.7,9.3,38.6,17.3c7.2,9.6,4.6,33.3,1.6,60.8c-4.4,40.9-9.5,87.2,16.1,98.7c1.3,0.6,2.6,1.1,4,1.4
	c24.1,6.2,53.1-25.9,78.7-54.3c18.6-20.6,34.6-38.5,46.8-39.6c2.6-0.2,5.2,0.1,7.7,0.8c12.4,3.2,29.3,15.2,47.2,27.8
	c21.3,15.1,45.5,32.1,66.3,37.5c12.5,3.2,22.4,2,30.5-3.6c23.9-16.8,9.8-61.2-2.6-100.4c-8.2-25.7-15.2-47.9-10.2-58.7
	c5-10.6,26.3-19.9,50.9-30.5c37.2-16.1,83.3-36,80-66.6c-2.8-25.2-35.8-36.9-64.2-44.3c-9.6-2.5-19.3-4.6-28.7-6.7
	c-7.9-1.7-16.8-3.7-24.6-5.7c-18.5-4.8-28.2-9.3-32.4-15.1c-7.1-9.8-4.2-33.7-0.9-61.4C426.4,87,432,40.1,406.2,28.3
	c-1.3-0.6-2.7-1.1-4.1-1.5c-24.4-6.3-53.9,26.3-79.9,55c-18.9,20.8-35.2,38.8-47.4,39.9c-2.4,0.2-4.9-0.1-7.3-0.7
	c-12.3-3.2-29.4-15.7-47.4-29c-21.6-15.9-46.1-33.9-67.2-39.3c-11.9-3.1-21.5-1.9-29.3,3.5c-25.1,17.4-11.1,63.3,1.3,103.8
	c8,26.1,14.9,48.6,9.9,59.7c-4.7,10.5-26.2,19.3-51.1,29.5C45,265,1.3,283,4.2,312.2C7,339.5,41.1,352,77.6,361.5
	c7.1,1.8,14.6,3.6,20.6,5.1l1.9,0.5C105.9,368.4,111.4,369.7,116.6,371.1z"/>
<path class="st4" d="M162.6,544.3c-2.1-0.5-4.1-1.3-6-2.3c-26.7-14.1-18.8-61-11.7-102.5c4.3-25.6,8.4-49.8,2.4-59
	c-6.2-9.6-29.5-16.6-54.3-24c-42.2-12.7-90.1-27.1-91.6-60.8c-1.4-31,44.2-46.7,84.3-60.4l0.1,0c23.8-8.2,46.3-15.9,51-25.1
	c5.1-9.8-0.5-33.1-6.4-57.7l0-0.1c-10.1-42.2-21.6-90.1,6.7-107.2c8-4.8,17.6-5.9,28.4-3.1c22.2,5.7,47.2,26.6,69.2,44.9
	c17.5,14.6,34.1,28.4,45.6,31.4c1.5,0.4,3.1,0.6,4.6,0.6c10.9-0.3,28.5-17.7,47.1-36.1c27.4-27.2,58.5-58,83.7-51.5
	c2,0.5,4,1.3,5.9,2.3c27,14.3,18.8,62,11.4,104.1c-4.5,25.8-8.7,50.2-2.8,59.6c5.9,9.4,29.4,15.9,54.2,22.8
	c41.7,11.6,89,24.8,90.8,57.3c1.8,32.2-44.1,49-84.5,63.8l-0.1,0c-23.6,8.7-45.9,16.9-50.9,26.2c-5.1,9.6,0.6,32.6,6.5,57
	c10.1,41.2,21.6,87.9-5.9,104.7c-8.1,4.9-17.8,6-28.9,3.1c-21.9-5.7-46.5-25.6-68.2-43.2c-17.4-14.1-33.9-27.4-45.4-30.4
	c-1.6-0.4-3.2-0.6-4.9-0.6c-11,0.4-28.5,17.5-46.9,35.6C218.7,520.5,187.8,550.9,162.6,544.3z M165.4,42.6c-10.7-2.8-20.2-1.8-28,3
	c-28,16.9-16.5,64.6-6.4,106.6l0,0.1c5.9,24.7,11.5,48.1,6.4,58.1c-4.9,9.4-27.4,17.1-51.3,25.3l-0.1,0C46,249.4,0.6,265,2,295.7
	c1.5,33.4,49.1,47.7,91.2,60.4c24.8,7.5,48.3,14.5,54.6,24.2c6.1,9.4,2,33.7-2.4,59.3c-7,41.3-14.9,88.1,11.5,101.9
	c1.9,1,3.9,1.8,5.9,2.3c24.9,6.5,55.7-23.8,82.9-50.4c18.6-18.2,36.1-35.4,47.3-35.8c1.7,0,3.4,0.2,5,0.6
	c11.6,3,28.1,16.4,45.6,30.5c21.7,17.6,46.3,37.5,68,43.1c11,2.8,20.6,1.8,28.5-3.1c27.2-16.6,15.7-63.1,5.7-104.1
	c-6-24.5-11.7-47.6-6.5-57.4c5.1-9.5,27.5-17.8,51.2-26.5l0.1,0c40.3-14.8,86-31.6,84.2-63.3c-1.8-32.1-48.9-45.2-90.4-56.8
	c-24.9-7-48.5-13.5-54.5-23.1c-6-9.6-1.8-34.1,2.7-60c7.3-41.9,15.5-89.4-11.2-103.5c-1.8-1-3.8-1.7-5.8-2.2
	c-24.9-6.4-55.9,24.3-83.2,51.3c-18.7,18.5-36.3,36-47.4,36.3c-1.6,0-3.2-0.2-4.8-0.6c-11.6-3-28.2-16.8-45.8-31.5
	C212.4,69.1,187.5,48.3,165.4,42.6L165.4,42.6z M163.2,542.1c-1.9-0.5-3.8-1.2-5.5-2.2c-25.2-13.3-17.4-59.4-10.5-100.1l0-0.1
	c4.6-27.1,8.6-50.5,2.1-60.5c-6.6-10.3-29.3-17.1-55.5-25c-41.5-12.5-88.5-26.6-89.9-58.7c-1.3-29.3,43.4-44.6,82.8-58.2
	c25.4-8.7,47.2-16.2,52.4-26.2c5.5-10.6,0.1-33.2-6.2-59.4c-9.9-41.4-21.2-88.4,5.6-104.7c7.5-4.6,16.3-5.5,26.6-2.8l0,0
	c21.7,5.6,46.4,26.2,68.2,44.4l0.1,0.1c18.5,15.4,34.5,28.8,46.5,31.9c1.7,0.5,3.5,0.7,5.3,0.7c11.8-0.4,28.9-17.2,48.6-36.8
	c27-26.8,57.6-57.1,81.5-50.9c1.9,0.5,3.7,1.2,5.4,2.1c25.6,13.5,17.4,60.3,10.2,101.6c-4.8,27.4-8.9,51.1-2.5,61.3
	c6.4,10.1,29.1,16.5,55.5,23.8c41,11.4,87.4,24.4,89.1,55.2c1.7,30.5-43.3,47-83,61.6l-0.1,0c-25.1,9.2-46.7,17.2-52.1,27.3
	c-5.5,10.4,0,32.8,6.4,58.6c9.9,40.4,21.2,86.2-4.8,102.1c-7.6,4.7-16.5,5.6-27.2,2.8c-21.4-5.5-45.8-25.3-67.4-42.7
	c-18.4-14.9-34.3-27.8-46.3-30.9c-1.8-0.5-3.7-0.7-5.5-0.7c-11.9,0.4-28.9,17-48.5,36.3C217.6,518.5,187.1,548.3,163.2,542.1z
	 M164.9,44.6l-0.1,0.2c-10.2-2.6-18.8-1.8-26.2,2.7c-26.5,16-15.3,62.8-5.4,104.1c6.3,26.3,11.8,49,6.2,59.8
	c-5.3,10.2-27.2,17.7-52.7,26.4C47.5,251.4,3,266.6,4.3,295.6c1.4,31.8,48.2,45.8,89.6,58.2c26.3,7.9,49.1,14.7,55.8,25.2
	c6.6,10.2,2.6,33.7-2,60.9l0,0.1c-6.9,40.5-14.6,86.4,10.3,99.5c1.7,0.9,3.5,1.6,5.4,2.1c23.7,6.1,54-23.6,80.7-49.8
	c19.7-19.3,36.7-36,48.8-36.4c1.9,0,3.8,0.2,5.7,0.7c12.1,3.1,28,16,46.4,30.9c21.5,17.4,45.9,37.2,67.2,42.7
	c10.5,2.7,19.2,1.8,26.8-2.8c25.7-15.7,14.5-61.3,4.6-101.5c-6.4-26-11.9-48.4-6.3-59c5.5-10.3,27.2-18.3,52.4-27.6l0.1,0
	c39.5-14.5,84.4-31,82.7-61c-1.7-30.4-47.9-43.3-88.7-54.7c-26.5-7.4-49.3-13.8-55.8-24c-6.5-10.3-2.4-34.1,2.4-61.6
	c7.1-41.1,15.2-87.7-10-101.1c-1.7-0.9-3.5-1.6-5.3-2.1c-23.6-6.1-54.1,24.1-81,50.7c-19.8,19.7-36.9,36.6-49,37
	c-1.8,0-3.6-0.2-5.4-0.7c-12.1-3.1-28.1-16.5-46.7-31.9l-0.1-0.1c-21.8-18.1-46.4-38.7-68-44.3L164.9,44.6z"/>
<path class="st5" d="M177.9,34.7c-9.4-2.4-17.9-1.7-25.3,2.2c-29.4,15.4-20.9,63.9-13.4,106.8c4.4,25.1,8.6,48.7,2.8,58.4
	c-5.4,9.1-28.5,15.5-52.9,22.3C48.5,235.7,2.5,248.5,2,278.8c-0.5,32.6,45.8,49.4,86.7,64.3c24.5,8.9,47.7,17.4,53.3,27.5
	c5.6,10,0,34.1-5.9,59.6c-9.4,40.9-20.1,87.2,5.5,102.8c2.3,1.4,4.8,2.5,7.5,3.2c24.6,6.4,56.6-21.4,84.8-45.9
	c19.6-17,38.1-33,49.3-32.7c1.2,0,2.4,0.2,3.5,0.5c11.3,2.9,27.3,17.8,44.3,33.5l0.1,0.1c21.6,20,46.1,42.7,68.4,48.5
	c9.4,2.4,17.9,1.7,25.3-2.2c29-15.3,20.6-63,13.2-105.1l0-0.1c-4.4-24.7-8.5-48.1-2.7-57.7c5.5-9.3,28.4-16.2,52.7-23.6
	c40.8-12.4,87.1-26.4,87.1-57.7c0-31.3-45.8-46.8-86.2-60.6l-0.1,0c-24.6-8.4-47.8-16.3-53.2-26.1c-5.5-10.1,0.1-34.5,6-60.2
	c9.5-41.6,20.3-88.7-5.8-104.5c-2.2-1.3-4.6-2.3-7-3c-24.2-6.3-56.1,22-84.2,47l-0.1,0c-19.5,17.4-38,33.7-49,33.4
	c-1.1,0-2.3-0.2-3.4-0.5c-11.4-2.9-27.5-18.2-44.6-34.4C225.4,64,200.6,40.5,177.9,34.7z"/>
<path class="st6" d="M149.5,534.5c-2.5-0.6-4.8-1.6-7-3c-24.5-14.9-14-60.5-4.7-100.8c6.2-27,11.6-50.3,5.7-60.9
	c-6-10.7-28.3-18.9-54.2-28.3c-40.3-14.7-86-31.4-85.5-62.6c0.4-29,45.7-41.6,85.7-52.7c25.9-7.2,48.3-13.5,54-23.2
	c6.1-10.3,2.1-33.1-2.6-59.6c-7.4-42.2-15.9-90.1,12.4-104.9c7.1-3.7,15-4.4,24-2.1l0,0c22.3,5.8,46.9,29.1,68.7,49.6
	c18,17.1,33.6,31.8,45.4,34.9c1.2,0.3,2.5,0.5,3.8,0.6c11.7,0.4,29.5-15.5,50.2-33.9c27.8-24.7,59.3-52.7,82.6-46.7
	c2.3,0.6,4.5,1.5,6.6,2.8c25,15.1,14.4,61.6,5,102.6c-6.2,27.2-11.6,50.8-5.8,61.5c5.7,10.5,28.2,18.2,54.3,27
	c39.8,13.5,85,28.9,85,58.9c0,30-45.6,43.8-85.8,56c-25.7,7.8-47.8,14.5-53.7,24.4c-6.1,10.2-2.1,32.8,2.5,59
	c7.3,41.5,15.7,88.5-12.2,103.2c-7.1,3.7-14.9,4.4-24,2.1c-21.9-5.7-46.2-28.2-67.6-48.1c-17.9-16.6-33.4-30.9-45.1-34
	c-1.3-0.3-2.6-0.5-4-0.6c-11.9-0.3-29.7,15.2-50.4,33.1l-0.2-0.1l0.2,0.2C204.8,513.2,173.1,540.6,149.5,534.5z"/>
<path class="st4" d="M135.2,529.2c-3.3-0.9-6.4-2.3-9.2-4.2c-25.2-17.4-11.7-63.5,0.3-104.1l0-0.1c7.4-25.2,14.4-49,9.5-59.4
	c-4.9-10.4-27.7-20.2-51.8-30.6C44.3,313.6-0.9,294.1,1.6,262c2.3-30.4,49.2-40.5,90.5-49.5c24.9-5.4,48.4-10.5,54.2-19.1
	c6.2-9.2,3.5-33,0.6-58.2c-5-43.8-10.7-93.5,20.6-107.6c7.1-3.2,15-3.7,23.3-1.6c23.5,6.1,48.1,32.4,69.8,55.6l0.5,0.5
	c16.2,17.4,31.6,33.8,42.6,36.7c0.7,0.2,1.4,0.3,2.2,0.4c10.6,1,29.8-14.3,50.2-30.4c29-23,61.8-49.1,85.7-42.9
	c3,0.8,5.9,2.1,8.4,3.8c25.8,17.7,12.4,64.6,0.6,106.1c-7.3,25.5-14.2,49.6-9.3,60.1c4.7,10.1,27.6,19.3,51.8,29.1
	c39.4,15.9,84.1,34,82.3,64.8c-1.8,31.2-48.8,42.6-90.3,52.6c-24.7,6-48,11.6-53.9,20.4c-6.2,9.3-3.6,32.9-0.8,57.8
	c4.8,43.4,10.3,92.6-21,106.8c-7,3.2-14.7,3.7-22.9,1.6c-23-6-47.2-31.5-68.5-54.1c-16.3-17.3-31.7-33.6-42.6-36.4
	c-0.7-0.2-1.5-0.3-2.3-0.4c-11-0.9-30.3,13.9-50.9,29.6l-0.1,0C193,510.2,159.8,535.6,135.2,529.2z M190.7,26.6
	c-8.2-2.1-16-1.6-23,1.5c-30.9,13.9-25.3,63.4-20.3,107c2.9,25.3,5.6,49.1-0.7,58.5c-5.9,8.8-29.5,13.9-54.5,19.3
	C51,221.9,4.3,232,2.1,262c-2.4,31.7,42.5,51.1,82.2,68.3c24.2,10.5,47.1,20.3,52.1,30.9c5,10.5-2,34.4-9.5,59.7l0,0.1
	c-11.9,40.5-25.3,86.3-0.5,103.6c2.7,1.9,5.8,3.3,9,4.1c24.3,6.3,57.5-19,86.7-41.4l0.1-0.1c20.6-15.7,40-30.6,51.2-29.7
	c0.8,0.1,1.6,0.2,2.4,0.4c11.1,2.9,26.5,19.2,42.8,36.5c21.3,22.6,45.4,48.1,68.3,54c8.1,2.1,15.7,1.6,22.5-1.5
	c30.9-14,25.5-63,20.7-106.2c-2.8-25-5.4-48.7,0.9-58.1c6-9,29.4-14.7,54.2-20.7c41.3-10,88.1-21.3,89.9-52.2
	c1.8-30.4-42.7-48.4-81.9-64.3c-24.4-9.8-47.3-19.1-52.1-29.4c-5-10.7,1.9-34.9,9.2-60.5c11.8-41.3,25.1-88-0.4-105.5
	c-2.5-1.7-5.3-3-8.3-3.8c-23.7-6.1-56.4,19.8-85.2,42.7c-20.5,16.3-39.8,31.6-50.6,30.6c-0.8-0.1-1.5-0.2-2.3-0.4
	c-11.1-2.9-26.5-19.4-42.8-36.8l-0.4-0.5C238.6,58.9,214.1,32.7,190.7,26.6z M135.8,527c-3-0.8-5.9-2.1-8.4-3.9
	c-23.8-16.5-10.5-61.7,1.2-101.6c7.9-26.8,14.7-50,9.4-61.1c-5.3-11.2-27.4-20.7-53-31.8c-39.1-16.9-83.4-36.1-81.1-66.5
	C6,233.5,52,223.6,92.6,214.8c26.5-5.7,49.3-10.7,55.7-20.1c6.7-9.9,4-33,1-59.7c-4.9-43.1-10.5-91.8,19.2-105.2
	c6.7-3,13.9-3.5,21.8-1.4l0,0c22.9,5.9,47.3,32,68.7,55c17.4,18.7,32.5,34.8,44.2,37.8c0.8,0.2,1.7,0.4,2.5,0.4
	c11.5,1.1,30.2-13.7,51.8-30.9l0.1,0c28.5-22.7,60.9-48.4,83.7-42.5c2.7,0.7,5.3,1.9,7.7,3.5c24.5,16.7,11.3,62.8-0.3,103.5
	c-7.7,27.1-14.4,50.4-9.1,61.8c5.1,10.9,27.3,19.9,53,30.3l0.1,0c38.6,15.6,82.4,33.3,80.7,62.5c-1.7,29.5-47.8,40.7-88.5,50.5
	c-26.2,6.3-48.9,11.8-55.3,21.4c-6.7,10-4.1,32.9-1.2,59.3c4.7,42.6,10.1,90.9-19.7,104.4c-6.6,3-13.5,3.4-21.3,1.4
	c-22.4-5.8-46.3-31.1-67.4-53.5c-17.2-18.3-32.1-34-43.7-37c-0.9-0.2-1.8-0.4-2.7-0.5c-11.9-1-30.7,13.4-52.5,30.1
	C192.1,508,159.3,533.1,135.8,527z M190.1,28.8c-7.8-2-14.8-1.6-21.4,1.4c-29.4,13.2-23.8,61.8-18.9,104.7c3.1,26.8,5.7,50-1.1,60.1
	c-6.4,9.6-29.4,14.6-56,20.3C52.3,224,6.5,233.9,4.4,262.2c-2.3,30.1,41.8,49.1,80.7,66c25.7,11.1,47.9,20.7,53.3,32.1
	c5.4,11.3-1.5,34.6-9.4,61.5c-11.7,39.7-24.9,84.7-1.4,101c2.5,1.7,5.3,3,8.3,3.8c23.2,6,55.9-19,84.7-41
	c21.9-16.7,40.8-31.2,52.9-30.2c0.9,0.1,1.8,0.2,2.7,0.5c11.7,3,26.6,18.8,43.9,37.2c21.1,22.3,44.9,47.6,67.2,53.4
	c7.7,2,14.5,1.5,21-1.4c29.4-13.3,24.1-61.4,19.4-103.9c-2.9-26.6-5.5-49.5,1.3-59.7c6.5-9.8,29.3-15.3,55.6-21.6
	c40.5-9.8,86.4-20.9,88.1-50c1.7-28.8-41.9-46.4-80.4-62l0-0.3l-0.1,0.2c-25.8-10.4-48.1-19.5-53.3-30.5
	c-5.3-11.5,1.3-34.9,9.1-62.1c11.6-40.5,24.7-86.5,0.5-103c-2.3-1.6-4.8-2.7-7.5-3.4c-22.6-5.8-54.8,19.8-83.3,42.3l-0.1,0.1
	c-21.7,17.2-40.4,32.1-52.1,31c-0.9-0.1-1.7-0.2-2.6-0.5c-11.8-3.1-26.9-19.2-44.4-37.9C237.1,60.7,212.8,34.7,190.1,28.8
	L190.1,28.8z"/>
<path class="st5" d="M121.6,521.8c-3.9-1-7.6-2.8-10.8-5.3c-24.4-19.1-8.1-64.7,6.2-104.9c9-25.1,17.4-48.8,13.1-59.7
	c-4.3-10.8-26.7-22.1-50.5-34.1c-38.6-19.4-82.3-41.4-78-72.7c4.1-30,51.7-37.4,93.6-44l0.1,0c25.4-4,49.4-7.7,55.7-16.1
	c6.7-9,5.4-32.9,4-58.3c-2.3-42.4-5.2-95.2,27.6-107.8c6.8-2.6,14.2-2.9,21.2-1c24.4,6.3,48.5,35.5,69.7,61.2
	c15.8,19.1,30.6,37.1,41.5,39.9c0.4,0.1,0.8,0.2,1.2,0.2c10.5,1.6,30.5-12.6,51.7-27.6c29.6-21,63.2-44.8,86.8-38.7
	c3.5,0.9,6.8,2.5,9.7,4.7c25.2,19.4,9.3,65.9-4.7,107c-8.7,25.4-16.9,49.4-12.5,60.5c4.1,10.4,26.7,21.1,50.6,32.3
	c38.3,18,81.6,38.5,78,68.5c-3.6,30.7-51.2,39.4-93.1,47.1c-25.2,4.6-49,8.9-55.4,17.5c-6.8,9.1-5.6,32.9-4.4,58.2
	c2,42.4,4.5,95.1-28.7,107.8c-6.5,2.5-13.7,2.8-20.4,0.9c-23.7-6.1-47.2-34.7-68-59.9c-15.5-18.8-30.2-36.6-40.8-39.3
	c-0.4-0.1-0.9-0.2-1.3-0.3c-11-1.5-31.4,12.2-52.9,26.7l-0.1,0C180.3,505.1,146,528.2,121.6,521.8z M122.2,519.6
	c-3.6-0.9-7-2.6-10-4.9c-23.1-18.1-7.1-62.8,7-102.3c9.5-26.6,17.7-49.6,13.1-61.4c-4.6-11.6-26.4-22.5-51.6-35.2l-0.1,0
	c-37.9-19.1-80.8-40.7-76.8-70.3c3.9-28.3,50.5-35.6,91.7-42c27-4.2,50.4-7.9,57.3-17c7.2-9.6,6-32.9,4.5-59.9
	c-2.3-41.7-5.1-93.5,26.1-105.5c6.4-2.4,13.3-2.7,19.8-0.9l0,0c23.6,6.1,47.4,34.9,68.4,60.3l0.1,0.1c16,19.4,31.1,37.7,42.8,40.7
	c0.4,0.1,0.8,0.2,1.3,0.3c11.4,1.8,30.9-12,53.4-28c29.2-20.7,62.3-44.1,84.8-38.3c3.2,0.8,6.2,2.3,8.8,4.3
	c23.9,18.4,8.3,64.1-5.5,104.4c-9.2,26.9-17.1,50.1-12.5,62c4.4,11.3,26.4,21.6,51.8,33.6c37.5,17.7,80,37.7,76.7,66.1
	c-3.4,29-50.1,37.5-91.2,45c-26.8,4.9-50,9.1-56.9,18.4c-7.3,9.8-6.2,32.9-4.9,59.6c2,41.6,4.4,93.4-27.2,105.6
	c-6.1,2.3-12.8,2.6-19,0.8c-22.9-5.9-46.2-34.2-66.8-59.1c-16.5-20-30.6-37.2-42-40.1c-0.5-0.1-1.1-0.2-1.6-0.3
	c-11.9-1.7-31.6,11.6-54.6,27.1C179.4,502.9,145.6,525.7,122.2,519.6z"/>
<path class="st4" d="M108,514.6c-4.6-1.2-8.9-3.4-12.5-6.6c-23.6-20.8-4.6-65.9,12.2-105.7c10.5-24.9,20.5-48.5,16.7-60
	c-3.7-11.2-25.8-24-49.2-37.5c-37.4-21.6-79.7-46-73.6-76.5c6-29.6,54.2-34.4,96.7-38.5c26-2.6,50.6-5,57.4-13.1
	c7.3-8.7,7.4-31.8,7.5-58.6c0.1-43.2,0.3-97,34.6-107.9c6.3-2,13-2.2,19.4-0.4c25.3,6.5,48.6,38.6,69.3,66.9l0.1,0.1
	c14.9,20.5,29,39.8,39.7,42.6l0.4,0.1c10.3,2.3,31.2-10.9,53.3-24.8c30.2-19,64.4-40.6,87.7-34.6c4,1,7.8,3,10.9,5.7
	c24.6,21.1,6.1,67.2-10.1,108c-10.1,25.2-19.6,49-15.8,60.7c3.5,10.8,25.8,22.9,49.3,35.6c37.1,20.1,79.1,42.8,73.8,72.1
	c-5.5,30.2-53.6,36.2-96,41.5c-25.8,3.2-50.1,6.2-56.9,14.5c-7.3,8.9-7.6,31.9-7.9,58.5c-0.6,43.5-1.2,97.6-36.4,108.9
	c-5.9,1.9-12.3,2-18.3,0.4c-24.4-6.3-47.1-37.9-67.2-65.7l0.2-0.2l-0.2,0.1c-14.6-20.3-28.4-39.4-38.8-42.1c0,0-0.1,0-0.2-0.1
	c-0.1,0-0.2,0-0.3,0l-0.2,0c-11-2.2-32.3,10.4-54.9,23.8C167.7,500.1,132.5,520.9,108,514.6z M217.1,10.3
	c-6.3-1.7-12.9-1.5-19.1,0.4C164,21.5,163.9,75,163.7,118.1c-0.1,26.9-0.2,50.1-7.6,58.9c-7,8.3-31.6,10.7-57.7,13.3
	c-42.3,4.1-90.3,8.8-96.2,38.1c-6.1,30.1,36.1,54.5,73.3,76c23.5,13.6,45.7,26.4,49.4,37.8c3.8,11.7-6.2,35.3-16.7,60.3
	c-16.7,39.7-35.7,84.6-12.3,105.2c3.5,3.1,7.7,5.3,12.3,6.5c24.3,6.3,59.3-14.4,90.2-32.7c22.7-13.4,44.2-26.1,55.3-23.8l0.1,0
	c0.2,0,0.3,0.1,0.5,0.1l0,0c10.6,2.7,24.4,22,39.1,42.3l0,0.1c20,27.8,42.7,59.3,66.9,65.5c5.9,1.6,12.2,1.5,18.1-0.4
	c34.8-11.2,35.5-65.1,36.1-108.4c0.3-26.7,0.6-49.8,8.1-58.9c6.9-8.4,31.3-11.5,57.2-14.7c42.3-5.2,90.2-11.2,95.6-41.1
	c5.2-28.9-36.6-51.5-73.6-71.6c-23.7-12.8-46-24.9-49.6-35.9c-3.9-11.9,5.7-35.8,15.8-61.1C484.2,133,502.5,87,478.3,66.2
	c-3.1-2.7-6.8-4.6-10.7-5.6c-23.1-6-57.2,15.5-87.3,34.5c-22.2,14-43.2,27.2-53.7,24.9l-0.4-0.1c-10.9-2.8-25-22.2-40-42.8L286,77
	C265.5,48.8,242.2,16.8,217.1,10.3z M108.6,512.4c-4.3-1.1-8.2-3.2-11.5-6.1c-22.4-19.7-3.7-64,12.8-103.1
	c11.2-26.5,20.8-49.3,16.8-61.6c-3.9-12-25.4-24.4-50.2-38.8C39.7,281.6-1.9,257.6,4,228.7c5.7-28,52.9-32.6,94.6-36.7
	c27.7-2.7,51.5-5.1,58.9-13.9c7.9-9.3,7.9-32.8,8-60.1c0.1-42.5,0.3-95.3,33-105.7c5.9-1.9,12.2-2,18.1-0.4l0,0
	c24.5,6.3,47.6,38.1,68,66.1c15.9,21.8,29.6,40.6,41.1,43.6l0.5,0.1c11.3,2.5,31.6-10.3,55.1-25.1c29.8-18.8,63.5-40,85.8-34.2
	c3.7,0.9,7.1,2.7,10,5.2c23.3,20,5.2,65.3-10.8,105.3c-10.7,26.8-19.9,49.8-15.8,62.3c3.8,11.7,25.4,23.4,50.4,36.9
	c36.4,19.7,77.7,42.1,72.7,69.7c-5.2,28.6-52.3,34.4-94,39.6c-27.4,3.4-51,6.3-58.4,15.4c-7.8,9.5-8.1,32.9-8.5,59.9
	c-0.5,42.8-1.2,96-34.8,106.8c-5.5,1.8-11.4,1.9-17.1,0.4c-23.6-6.1-46-37.3-65.8-64.8l0-0.1c-15.5-21.6-28.9-40.2-40.2-43.1
	c-0.2-0.1-0.5-0.1-0.7-0.2c-11.8-2.4-32.6,9.9-56.6,24.1C166.9,497.9,132.2,518.4,108.6,512.4z M216.5,12.5
	c-5.9-1.6-12.1-1.5-17.8,0.4c-32.3,10.3-32.5,62.9-32.6,105.2c-0.1,27.4-0.2,51-8.1,60.4c-7.6,9-31.5,11.4-59.2,14.1
	c-41.6,4.1-88.6,8.7-94.2,36.3c-5.8,28.5,35.6,52.4,72.2,73.5c25,14.4,46.5,26.9,50.5,39.1c4.1,12.5-5.6,35.4-16.8,61.9
	c-16.4,39-35.1,83.1-12.9,102.5c3.2,2.9,7.1,4.9,11.3,6c23.3,6,57.9-14.4,88.5-32.5c24.1-14.2,44.9-26.6,56.9-24.1
	c0.2,0,0.5,0.1,0.7,0.2c11.4,3,24.9,21.6,40.4,43.2l0.1,0.1c19.8,27.4,42.2,58.5,65.6,64.6c5.5,1.5,11.3,1.4,16.8-0.4
	c33.3-10.7,33.9-63.7,34.5-106.3c0.3-27.2,0.6-50.6,8.6-60.3c7.5-9.2,31.2-12.1,58.7-15.5c41.5-5.2,88.5-11,93.6-39.2
	c4.9-27.2-36.1-49.5-72.4-69.1c-25.1-13.6-46.8-25.4-50.7-37.2c-4.1-12.7,5.1-35.8,15.8-62.7c15.9-39.9,33.9-85,10.9-104.8
	c-2.8-2.4-6.2-4.2-9.8-5.1c-22.1-5.7-55.8,15.5-85.4,34.2c-23.6,14.9-44,27.7-55.5,25.2l-0.5-0.1c-11.7-3-25.5-21.9-41.4-43.8
	C263.8,50.4,240.8,18.8,216.5,12.5L216.5,12.5z"/>
<path class="st4" d="M346.7,574.8c-25.3-6.5-46.9-41.2-66.1-71.7l0-0.1c-13.6-21.7-26.5-42.2-36.7-45c-11-2.9-33.4,8.7-57,20.9
	c-31.7,16.4-67.7,35-92.2,28.6c-5.4-1.3-10.3-4.1-14.2-7.9c-22.9-22.5-1.1-67.1,18.1-106.5c12.1-24.8,23.5-48.2,20.4-60.2
	c-3-11.6-24.8-25.9-47.8-41C34.8,268-6.2,241.1,1.8,211.4c7.9-29.3,56.7-31.3,99.8-33.1c26.5-1.1,51.6-2.2,58.9-10
	c7.8-8.4,9.2-31.7,10.8-58.7c2.6-44,5.9-98.8,41.6-108.1c5.8-1.5,11.9-1.5,17.7,0c26.3,6.8,48.8,41.8,68.6,72.8
	c14.6,22.7,27.2,42.3,37.8,45.3c10.6,2.7,32.1-9.3,55-22c30.7-17.1,65.4-36.5,88.5-30.5c4.6,1.2,8.8,3.5,12.3,6.7
	c23.9,22.8,3,68.5-15.5,108.9l-0.3,0l0.2,0.1c-11.4,25-22.2,48.7-19,61c2.9,11.2,24.8,24.7,48,38.9c35.9,22.1,76.7,47.2,69.7,75.7
	c-7.3,29.7-55.9,33-98.8,36c-26.3,1.8-51.1,3.5-58.4,11.5c-7.9,8.8-9.5,32-11.4,59c-3.2,44.7-7.1,100.2-44.2,109.9
	C357.8,576.2,352.1,576.2,346.7,574.8z M243.9,457.5c10.5,2.8,23.4,23.4,37.1,45.2l0,0.1c19.1,30.5,40.7,65,65.8,71.5
	c5.3,1.4,10.9,1.4,16.2,0c36.7-9.6,40.7-65,43.8-109.4c1.9-27.1,3.6-50.4,11.6-59.3c7.4-8.2,32.3-9.9,58.7-11.7
	c42.7-2.9,91.2-6.2,98.4-35.6c6.9-28.1-33.7-53.1-69.5-75.1c-23.3-14.3-45.2-27.9-48.2-39.2c-3.3-12.4,7.6-36.2,19.1-61.3l0-0.1
	c18.4-40.2,39.2-85.8,15.6-108.3c-3.4-3.2-7.5-5.5-12-6.6C457.5,61.7,422.9,81,392.3,98c-23,12.8-44.6,24.9-55.4,22.1
	c-10.8-3.1-23.4-22.8-38-45.5C279.1,43.7,256.6,8.7,230.5,2c-5.7-1.5-11.7-1.5-17.5,0c-35.4,9.3-38.6,63.8-41.2,107.6
	c-1.6,27.1-3,50.5-11,59.1c-7.5,8-32.6,9.1-59.2,10.2c-42.9,1.8-91.6,3.8-99.3,32.7c-7.9,29.3,33,56.1,69,79.8
	c23.1,15.2,44.9,29.5,48,41.3c3.2,12.2-8.3,35.7-20.4,60.6C79.8,432.5,58.1,477,80.7,499.2c3.9,3.8,8.7,6.5,14,7.8
	c24.4,6.3,60.2-12.2,91.9-28.5C210.3,466.2,232.7,454.6,243.9,457.5z M347.3,572.5c-24.4-6.3-45.8-40.5-64.7-70.7l0-0.1
	c-14.5-23.1-27-43-38.2-46c-11.8-3.1-33.5,8.1-58.6,21.1c-31.3,16.2-66.9,34.6-90.6,28.4c-5-1.2-9.5-3.8-13.2-7.4
	c-21.7-21.3-0.3-65.2,18.6-103.9c12.8-26.3,23.9-49,20.5-61.8c-3.3-12.5-24.4-26.3-48.8-42.3C36.7,266.5-3.5,240.1,4,212
	c7.4-27.6,55.3-29.6,97.6-31.4c28.2-1.2,52.5-2.2,60.5-10.7c8.4-9,9.8-32.7,11.5-60.2c2.6-43.2,5.8-97.1,39.9-106
	c5.4-1.4,11.1-1.4,16.6,0c25.4,6.6,47.6,41.2,67.3,71.8c14.8,23.1,27.6,43,39.1,46.3l0.3,0.1c11.2,2.9,32.2-8.8,56.5-22.3
	c30.3-16.9,64.6-36,86.8-30.2c4.2,1.1,8.1,3.2,11.2,6.2c22.7,21.6,2.1,66.6-16,106.3c-12.2,26.6-22.6,49.5-19.2,62.6
	c3.2,12,24.4,25.1,49,40.3c35.3,21.7,75.3,46.4,68.7,73.2c-6.9,28.1-54.6,31.3-96.7,34.2c-27.9,1.9-52,3.5-59.9,12.3
	c-8.4,9.3-10.1,32.9-12,60.3c-3.1,44-7,98.6-42.5,107.9C357.6,573.9,352.3,573.9,347.3,572.5L347.3,572.5z M283,501.5
	c18.9,30.1,40.2,64.2,64.4,70.5c4.9,1.3,10.1,1.3,15.1,0c35.2-9.2,39-63.6,42.1-107.4c1.9-27.5,3.6-51.2,12.2-60.6
	c8-8.9,32.2-10.5,60.3-12.4c41.9-2.9,89.5-6.1,96.3-33.8c6.5-26.5-33.3-51-68.4-72.6c-24.7-15.2-46-28.4-49.2-40.6
	c-3.5-13.3,7-36.3,19.2-62.9c18.1-39.5,38.5-84.3,16.1-105.7c-3.1-2.9-6.9-5-11-6.1c-22-5.7-56.2,13.4-86.4,30.2
	c-24.4,13.6-45.5,25.4-56.9,22.4l-0.3-0.1c-11.6-3.4-24.5-23.4-39.4-46.5c-19.6-30.5-41.7-65-67-71.5c-5.3-1.4-11-1.4-16.3,0
	c-33.8,8.9-36.9,62.4-39.5,105.5c-1.6,27.6-3.1,51.4-11.6,60.5c-8.2,8.7-32.6,9.7-60.9,10.9c-42.1,1.8-89.8,3.8-97.2,31
	c-7.4,27.7,32.6,54,68,77.2c24.6,16.1,45.7,30,49.1,42.7c3.4,13.1-7.7,35.8-20.5,62.2c-18.8,38.6-40.1,82.3-18.7,103.3
	c3.6,3.5,8.1,6,13,7.2c23.5,6.1,59-12.2,90.2-28.4c25.2-13,46.9-24.2,59-21.1h0C255.9,458.3,268.4,478.3,283,501.5l-0.2,0.1
	L283,501.5z"/>
<path class="st7" d="M347.3,572.5c-24.4-6.3-45.8-40.5-64.7-70.7l0-0.1c-14.5-23.1-27-43-38.2-46c-11.8-3.1-33.5,8.1-58.6,21.1
	c-31.3,16.2-66.9,34.6-90.6,28.4c-5-1.2-9.5-3.8-13.2-7.4c-21.7-21.3-0.3-65.2,18.6-103.9c12.8-26.3,23.9-49,20.5-61.8
	c-3.3-12.5-24.4-26.3-48.8-42.3C36.7,266.5-3.5,240.1,4,212c7.4-27.6,55.3-29.6,97.6-31.4c28.2-1.2,52.5-2.2,60.5-10.7
	c8.4-9,9.8-32.7,11.5-60.2c2.6-43.2,5.8-97.1,39.9-106c5.4-1.4,11.1-1.4,16.6,0c25.4,6.6,47.6,41.2,67.3,71.8
	c14.8,23.1,27.6,43,39.1,46.3l0.3,0.1c11.2,2.9,32.2-8.8,56.5-22.3c30.3-16.9,64.6-36,86.8-30.2c4.2,1.1,8.1,3.2,11.2,6.2
	c22.7,21.6,2.1,66.6-16,106.3c-12.2,26.6-22.6,49.5-19.2,62.6c3.2,12,24.4,25.1,49,40.3c35.3,21.7,75.3,46.4,68.7,73.2
	c-6.9,28.1-54.6,31.3-96.7,34.2c-27.9,1.9-52,3.5-59.9,12.3c-8.4,9.3-10.1,32.9-12,60.3c-3.1,44-7,98.6-42.5,107.9
	C357.6,573.9,352.3,573.9,347.3,572.5z M283,501.5c18.9,30.1,40.2,64.2,64.4,70.5c4.9,1.3,10.1,1.3,15.1,0
	c35.2-9.2,39-63.6,42.1-107.4c1.9-27.5,3.6-51.2,12.2-60.6c8-8.9,32.2-10.5,60.3-12.4c41.9-2.9,89.5-6.1,96.3-33.8
	c6.5-26.5-33.3-51-68.4-72.6c-24.7-15.2-46-28.4-49.2-40.6c-3.5-13.3,7-36.3,19.2-62.9c18.1-39.5,38.5-84.3,16.1-105.7
	c-3.1-2.9-6.9-5-11-6.1c-22-5.7-56.2,13.4-86.4,30.2c-24.4,13.6-45.5,25.4-56.9,22.4l-0.3-0.1c-11.6-3.4-24.5-23.4-39.4-46.5
	c-19.6-30.5-41.7-65-67-71.5c-5.3-1.4-11-1.4-16.3,0c-33.8,8.9-36.9,62.4-39.5,105.5c-1.6,27.6-3.1,51.4-11.6,60.5
	c-8.2,8.7-32.6,9.7-60.9,10.9c-42.1,1.8-89.8,3.8-97.2,31c-7.4,27.7,32.6,54,68,77.2c24.6,16.1,45.7,30,49.1,42.7
	c3.4,13.1-7.7,35.8-20.5,62.2c-18.8,38.6-40.1,82.3-18.7,103.3c3.6,3.5,8.1,6,13,7.2c23.5,6.1,59-12.2,90.2-28.4
	c25.2-13,46.9-24.2,59-21.1C255.9,458.3,268.4,478.3,283,501.5l-0.2,0.1L283,501.5z"/>
<path class="st8" d="M108.6,512.4c-4.3-1.1-8.2-3.2-11.5-6.1c-22.4-19.7-3.7-64,12.8-103.1c11.2-26.5,20.8-49.3,16.8-61.6
	c-3.9-12-25.4-24.4-50.2-38.8C39.7,281.6-1.9,257.6,4,228.7c5.7-28,52.9-32.6,94.6-36.7c27.7-2.7,51.5-5.1,58.9-13.9
	c7.9-9.3,7.9-32.8,8-60.1c0.1-42.5,0.3-95.3,33-105.7c5.9-1.9,12.2-2,18.1-0.4c24.5,6.3,47.6,38.1,68,66.1
	c15.9,21.8,29.6,40.6,41.1,43.6l0.5,0.1c11.3,2.5,31.6-10.3,55.1-25.1c29.8-18.8,63.5-40,85.8-34.2c3.7,0.9,7.1,2.7,10,5.2
	c23.3,20,5.2,65.3-10.8,105.3c-10.7,26.8-19.9,49.8-15.8,62.3c3.8,11.7,25.4,23.4,50.4,36.9c36.4,19.7,77.7,42.1,72.7,69.7
	c-5.2,28.6-52.3,34.4-94,39.6c-27.4,3.4-51,6.3-58.4,15.4c-7.8,9.5-8.1,32.9-8.5,59.9c-0.5,42.8-1.2,96-34.8,106.8
	c-5.5,1.8-11.4,1.9-17.1,0.4c-23.6-6.1-46-37.3-65.8-64.8l0-0.1c-15.5-21.6-28.9-40.2-40.2-43.1c-0.2-0.1-0.5-0.1-0.7-0.2
	c-11.8-2.4-32.6,9.9-56.6,24.1C166.9,497.9,132.2,518.4,108.6,512.4z M216.5,12.5c-5.9-1.6-12.1-1.5-17.9,0.4
	c-32.3,10.3-32.5,62.9-32.6,105.2c-0.1,27.4-0.2,51-8.1,60.4c-7.6,9-31.5,11.4-59.2,14.1c-41.6,4.1-88.6,8.7-94.2,36.3
	c-5.8,28.5,35.6,52.4,72.2,73.5c25,14.4,46.5,26.9,50.5,39.1c4.1,12.5-5.6,35.4-16.8,61.9c-16.4,39-35.1,83.1-12.9,102.5
	c3.2,2.9,7.1,4.9,11.3,6c23.3,6,57.9-14.4,88.5-32.5c24.1-14.2,44.9-26.6,56.9-24.1c0.2,0,0.5,0.1,0.7,0.2
	c11.4,3,24.9,21.6,40.4,43.2l0.1,0.1c19.8,27.4,42.2,58.5,65.6,64.6c5.5,1.5,11.3,1.4,16.8-0.4c33.3-10.7,33.9-63.7,34.5-106.3
	c0.3-27.2,0.6-50.6,8.6-60.3c7.5-9.2,31.2-12.1,58.7-15.5c41.5-5.2,88.5-11,93.6-39.2c4.9-27.2-36.1-49.5-72.4-69.1
	c-25.1-13.6-46.8-25.4-50.7-37.2c-4.1-12.7,5.1-35.8,15.8-62.7c15.9-39.9,33.9-85,10.9-104.8c-2.8-2.4-6.2-4.2-9.8-5.1
	c-22.1-5.7-55.8,15.5-85.4,34.2c-23.6,14.9-44,27.7-55.5,25.2l-0.5-0.1c-11.7-3-25.5-21.9-41.4-43.8
	C263.8,50.4,240.8,18.8,216.5,12.5z"/>
<path class="st9" d="M122.2,519.6c-3.6-0.9-7-2.6-10-4.9c-23.1-18.1-7.1-62.8,7-102.3c9.5-26.6,17.7-49.6,13.1-61.4
	c-4.6-11.6-26.4-22.5-51.6-35.2l-0.1,0c-37.9-19.1-80.8-40.7-76.8-70.3c3.9-28.3,50.5-35.6,91.7-42c27-4.2,50.4-7.9,57.3-17
	c7.2-9.6,6-32.9,4.5-59.9c-2.3-41.7-5.1-93.5,26.1-105.5c6.4-2.4,13.3-2.7,19.8-0.9l0,0c23.6,6.1,47.4,34.9,68.4,60.3l0.1,0.1
	c16,19.4,31.1,37.7,42.8,40.7c0.4,0.1,0.8,0.2,1.3,0.3c11.4,1.8,30.9-12,53.4-28c29.2-20.7,62.3-44.1,84.8-38.3
	c3.2,0.8,6.2,2.3,8.8,4.3c23.9,18.4,8.3,64.1-5.5,104.4c-9.2,26.9-17.1,50.1-12.5,62c4.4,11.3,26.4,21.6,51.8,33.6
	c37.5,17.7,80,37.7,76.7,66.1c-3.4,29-50.1,37.5-91.2,45c-26.8,4.9-50,9.1-56.9,18.4c-7.3,9.8-6.2,32.9-4.9,59.6
	c2,41.6,4.4,93.4-27.2,105.6c-6.1,2.3-12.8,2.6-19,0.8c-22.9-5.9-46.2-34.2-66.8-59.1c-16.5-20-30.6-37.2-42-40.1
	c-0.5-0.1-1.1-0.2-1.6-0.3c-11.9-1.7-31.6,11.6-54.6,27.1C179.4,502.9,145.6,525.7,122.2,519.6z"/>
<path class="st10" d="M190.1,28.8c-7.8-2-14.8-1.6-21.4,1.4c-29.4,13.2-23.8,61.8-18.9,104.7c3.1,26.8,5.7,50-1.1,60.1
	c-6.4,9.6-29.4,14.6-56,20.3C52.3,224,6.5,233.9,4.4,262.2c-2.3,30.1,41.8,49.1,80.7,66c25.7,11.1,47.9,20.7,53.3,32.1
	c5.4,11.3-1.5,34.6-9.4,61.5c-11.7,39.7-24.9,84.7-1.4,101c2.5,1.7,5.3,3,8.3,3.8c23.2,6,55.9-19,84.7-41
	c21.9-16.7,40.8-31.2,52.9-30.2c0.9,0.1,1.8,0.2,2.7,0.5c11.7,3,26.6,18.8,43.9,37.2c21.1,22.3,44.9,47.6,67.2,53.4
	c7.7,2,14.5,1.5,21-1.4c29.4-13.3,24.1-61.4,19.4-103.9c-2.9-26.6-5.5-49.5,1.3-59.7c6.5-9.8,29.3-15.3,55.6-21.6
	c40.5-9.8,86.4-20.9,88.1-50c1.7-28.8-41.9-46.4-80.4-62l0-0.3l-0.1,0.2c-25.8-10.4-48.1-19.5-53.3-30.5
	c-5.3-11.5,1.3-34.9,9.1-62.1c11.6-40.5,24.7-86.5,0.5-103c-2.3-1.6-4.8-2.7-7.5-3.4c-22.6-5.8-54.8,19.8-83.3,42.3l-0.1,0.1
	c-21.7,17.2-40.4,32.1-52.1,31c-0.9-0.1-1.7-0.2-2.6-0.5c-11.8-3.1-26.9-19.2-44.4-37.9C237.1,60.7,212.8,34.7,190.1,28.8
	L190.1,28.8z"/>
</svg>
